# Blender 5.2.1 LTS
# www.blender.org
mtllib Blade.mtl
o Blade
v 26.839985 -12.472954 7.485670
v 26.014050 -13.099628 6.746213
v 26.002243 -12.973999 6.683855
v 25.954445 -13.216032 6.788632
v 26.689323 -13.235811 7.815923
v 26.937195 -12.876200 7.683450
v 26.002243 -12.973999 6.683855
v 26.014050 -13.099628 6.746213
v 27.133327 -13.113889 6.138995
v 27.225952 -13.507118 6.357816
v 25.732113 -12.639343 6.465736
v 26.234734 -11.908857 7.089183
v 25.888206 -12.792896 6.572821
v 26.689323 -13.235811 7.815923
v 25.885612 -13.676605 7.854472
v 25.773849 -13.371931 6.823495
v 25.563305 -13.494112 6.835779
v 26.530037 -12.554081 5.733493
v 25.888206 -12.792896 6.572821
v 25.732113 -12.639343 6.465736
v 25.954445 -13.216032 6.788632
v 24.809612 -11.772624 6.675626
v 25.070347 -12.551561 6.279806
v 24.889435 -13.467607 6.676378
v 24.448994 -13.598581 7.466114
v 25.070347 -12.551561 6.279806
v 25.091167 -12.387807 5.383057
v 24.202454 -12.411880 6.024276
v 23.996124 -13.456594 6.476551
v 24.202454 -12.411880 6.024276
v 23.468597 -11.424404 6.156514
v 23.009350 -13.749743 7.163193
v 23.729855 -11.995235 4.957131
v 23.475185 -12.234379 5.781376
v 23.224083 -13.505808 6.331800
v 23.475185 -12.234379 5.781376
v 23.195930 -12.148175 5.679523
v 22.930241 -12.010168 5.555965
v 22.610161 -13.630859 6.257591
v 22.920628 -13.542150 6.282999
v 22.930241 -12.010168 5.555965
v 23.195930 -12.148175 5.679523
v 21.744881 -11.067572 4.849146
v 21.146702 -10.826346 4.604034
v 22.084957 -9.527729 5.063473
v 20.950462 -15.272141 7.550330
v 20.426075 -14.475193 6.183686
v 21.097466 -14.345718 6.268311
v 22.384190 -10.181536 3.689746
v 21.146702 -10.826346 4.604034
v 21.744881 -11.067572 4.849146
v 22.293755 -11.457239 5.154160
v 21.780056 -14.058309 6.280210
v 22.293755 -11.457239 5.154160
v 20.920208 -8.499205 4.278120
v 19.419048 -16.100212 7.568730
v 21.205040 -9.121540 2.970523
v 20.294319 -10.675528 4.346586
v 19.282883 -10.554711 4.068764
v 18.518692 -14.424147 5.743914
v 19.543434 -14.477564 5.992551
v 19.282883 -10.554711 4.068764
v 20.294319 -10.675528 4.346586
v 20.703423 -8.486094 3.393663
v 19.088509 -16.663069 6.933622
v 20.703423 -8.486094 3.393663
v 22.477108 -6.011520 2.602283
v 24.765385 -3.004630 1.669635
v 24.701382 -3.477069 2.753670
v 21.129692 -21.562006 10.582952
v 20.886322 -22.645922 10.172693
v 19.842052 -19.353876 8.378415
v 24.999966 -4.129446 1.382947
v 24.765385 -3.004630 1.669635
v 22.477108 -6.011520 2.602283
v 24.929871 -2.888007 2.500101
v 21.118580 -22.186159 10.854608
v 25.221249 -3.524649 1.162448
v 25.760971 -1.924640 1.372497
v 21.429325 -23.857563 10.867638
v 25.760971 -1.924640 1.372497
v 29.087309 0.341062 1.891852
v 27.498173 -0.541718 1.965847
v 27.830450 -0.329014 1.063867
v 22.810242 -25.748413 12.068371
v 22.693363 -24.870453 12.498177
v 23.886787 -25.991318 13.291598
v 27.830450 -0.329014 1.063867
v 27.796755 -1.194104 0.595123
v 29.385891 -0.311321 0.521129
v 26.300255 -1.442035 2.125735
v 26.705246 -1.070797 1.171807
v 22.010559 -24.841930 11.462748
v 21.883896 -23.803875 11.806568
v 26.705246 -1.070797 1.171807
v 26.596874 -2.090127 0.764033
v 30.360474 0.825429 1.942475
v 30.271349 0.770617 1.072200
v 31.554420 1.165540 1.163733
v 25.829914 -27.819984 13.712074
v 24.742882 -27.222271 13.190815
v 24.930031 -26.671146 13.846226
v 31.554420 1.165540 1.163733
v 30.271349 0.770617 1.072200
v 30.661018 0.168759 0.562741
v 28.857405 0.218665 1.026901
v 23.590328 -26.450716 12.572544
v 28.857405 0.218665 1.026901
v 31.774305 1.263499 2.045784
v 26.127247 -27.329878 14.424354
v 32.075504 0.605399 0.663041
v 32.445679 1.349732 2.143329
v 32.531548 1.393481 1.268092
v 26.686031 -28.204792 14.081703
v 26.741741 -27.531633 14.646582
v 32.531548 1.393481 1.268092
v 32.744255 0.697354 0.772611
v 33.761223 1.568652 1.452578
v 27.806795 -28.581072 14.504924
v 33.761223 1.568652 1.452578
v 27.599216 -4.918241 4.070802
v 27.922007 -3.548758 3.493156
v 28.903086 -4.910166 3.477859
v 29.133213 -3.964067 3.077702
v 25.481651 -22.453411 11.082060
v 24.271660 -22.031975 11.494860
v 25.626667 -21.500025 10.659896
v 24.491005 -20.656393 10.884121
v 29.133213 -3.964067 3.077702
v 28.221899 -4.203993 2.116426
v 28.903086 -4.910166 3.477859
v 27.898453 -5.572046 2.697075
v 29.415314 -3.243614 2.796258
v 28.379349 -2.501966 3.090742
v 24.306671 -23.123640 12.018227
v 25.474533 -23.197395 11.434599
v 28.678585 -3.155777 1.717015
v 29.415314 -3.243614 2.796258
v 28.941496 -1.505020 2.742532
v 29.894131 -2.353061 2.476710
v 25.591522 -24.138926 11.908194
v 24.463425 -24.179352 12.558647
v 29.894131 -2.353061 2.476710
v 29.242041 -2.161691 1.362798
v 29.718729 -0.548278 2.460317
v 30.480860 -1.506012 2.201374
v 25.829739 -25.056561 12.396821
v 24.843731 -25.232395 13.146503
v 30.480860 -1.506012 2.201374
v 30.019928 -1.206378 1.077575
v 30.700905 0.223063 2.303322
v 31.098438 -0.789339 1.994807
v 26.148415 -25.853346 12.845455
v 25.493126 -26.146086 13.718988
v 31.098438 -0.789339 1.994807
v 31.001451 -0.433607 0.923588
v 31.928965 0.992047 2.201010
v 32.239143 0.334321 1.708492
v 26.814747 -27.131618 13.598978
v 26.381138 -27.098885 14.362065
v 32.239143 0.334321 1.708492
v 32.227547 0.339671 0.830287
v 32.832188 0.825669 1.603825
v 27.196625 -27.709499 13.957195
v 32.832188 0.825669 1.603825
v 31.511915 -6.700981 5.756247
v 30.012032 -6.409636 5.302358
v 31.055616 -5.944873 4.439190
v 28.108957 -20.865017 10.898382
v 27.402397 -19.623310 11.022790
v 28.963995 -19.602161 11.341393
v 31.055616 -5.944873 4.439190
v 30.309305 -7.059154 3.937652
v 31.805258 -7.341917 4.409572
v 28.572975 -5.752383 4.679913
v 29.382473 -5.247153 3.742665
v 30.106789 -5.608219 4.072281
v 27.061501 -21.027746 10.747667
v 26.221016 -21.254915 10.672703
v 25.756405 -20.013845 10.853951
v 30.106789 -5.608219 4.072281
v 29.382473 -5.247153 3.742665
v 28.871553 -6.404759 3.309194
v 42.296600 -8.158615 8.810677
v 37.204041 -7.589279 7.438066
v 40.600243 -7.341025 7.182749
v 37.879269 -21.118418 13.147226
v 34.814644 -19.687771 12.675714
v 39.958027 -19.999758 13.936912
v 40.600243 -7.341025 7.182749
v 37.503929 -8.244514 6.061330
v 42.594521 -8.809563 7.442962
v 42.484718 -7.390114 7.616603
v 39.720184 -21.388090 13.676569
v 42.484718 -7.390114 7.616603
v 32.019341 -6.189336 4.765463
v 29.136213 -20.787800 11.085392
v 32.019341 -6.189336 4.765463
v 37.613461 -7.007574 6.373446
v 34.861629 -20.941219 12.405562
v 37.613461 -7.007574 6.373446
v 43.936832 -7.618697 8.888018
v 43.452789 -7.292250 7.780896
v 40.617462 -21.648682 13.996048
v 41.330219 -20.817049 14.601816
v 43.452789 -7.292250 7.780896
v 44.226902 -8.252474 7.556372
v 44.544838 -7.055448 7.906076
v 41.581841 -22.058319 14.401077
v 44.544838 -7.055448 7.906076
v 71.953041 -11.752785 16.111956
v 73.880188 -11.855370 16.580570
v 73.800087 -12.305628 17.639046
v 72.024231 -21.297548 21.531809
v 71.806641 -22.354620 21.125877
v 69.903687 -22.129484 20.604214
v 74.095398 -12.950851 16.283356
v 73.880188 -11.855370 16.580570
v 71.953041 -11.752785 16.111956
v 59.462910 -10.522070 12.805532
v 59.217884 -10.850823 13.739620
v 48.059036 -9.387417 9.781431
v 46.446255 -9.552774 10.347481
v 44.506424 -19.374952 14.599669
v 57.357319 -20.271658 17.818058
v 45.885040 -20.395239 14.546909
v 57.350632 -21.217396 17.435722
v 46.733704 -10.180834 9.027863
v 59.502716 -11.473160 12.432017
v 48.059036 -9.387417 9.781431
v 59.462910 -10.522070 12.805532
v 46.874069 -9.167640 9.418711
v 44.654083 -20.408298 14.284992
v 46.874069 -9.167640 9.418711
v 42.755302 -14.215920 11.804975
v 58.111839 -15.529889 15.775412
v 57.357319 -20.271658 17.818058
v 44.506424 -19.374952 14.599669
v 58.413040 -16.187990 14.392669
v 43.056499 -14.874021 10.422232
v 44.741722 -8.882252 9.695353
v 46.022686 -8.792591 9.054761
v 43.685326 -20.627607 14.178347
v 42.604031 -19.706251 14.381248
v 46.022686 -8.792591 9.054761
v 45.041611 -9.537488 8.318617
v 45.243240 -8.171347 8.589300
v 42.690475 -21.097038 14.185061
v 45.243240 -8.171347 8.589300
v 85.518272 -12.259239 19.307875
v 84.929245 -11.337389 19.606289
v 86.100067 -11.470958 19.059431
v 83.471069 -24.782675 24.822308
v 82.407944 -24.103769 25.133076
v 83.214798 -23.922686 24.357185
v 86.100067 -11.470958 19.059431
v 85.225204 -11.984047 18.247589
v 85.518272 -12.259239 19.307875
v 84.693741 -12.229058 19.990856
v 82.528221 -23.193989 24.737762
v 84.994293 -12.885729 18.611116
v 85.432297 -12.526043 19.416130
v 83.235321 -23.650284 24.232010
v 85.432297 -12.526043 19.416130
v 85.449974 -12.773674 19.537838
v 83.348579 -23.413849 24.144154
v 85.449974 -12.773674 19.537838
v 84.998344 -13.339947 20.566767
v 83.251526 -22.184805 24.395859
v 85.292328 -13.982306 19.217089
v 86.501297 -12.894785 19.824486
v 84.412018 -23.473688 24.404278
v 86.501297 -12.894785 19.824486
v 87.341881 -12.919974 20.019571
v 87.254311 -13.352644 21.071888
v 85.438515 -22.546766 25.052181
v 85.234428 -23.590794 24.639156
v 87.550270 -13.999302 19.713188
v 87.341881 -12.919974 20.019571
v 88.345245 -12.967220 21.114590
v 87.830925 -12.837203 20.086706
v 85.675087 -23.753113 24.812401
v 86.341881 -23.111082 25.506050
v 87.830925 -12.837203 20.086706
v 88.637283 -13.605291 19.773933
v 90.213501 -11.729458 20.078484
v 90.834503 -11.720287 20.209387
v 90.534340 -11.811491 21.068186
v 88.013039 -24.577866 26.594973
v 88.144997 -25.338367 26.104891
v 87.548203 -25.224995 25.920933
v 90.835533 -12.469586 19.685438
v 90.834503 -11.720287 20.209387
v 90.213501 -11.729458 20.078484
v 91.296471 -11.825239 20.359966
v 91.059143 -11.886816 21.203039
v 88.547531 -24.604172 26.708607
v 88.632385 -25.314644 26.199766
v 91.355118 -12.533469 19.844341
v 91.296471 -11.825239 20.359966
v 91.840210 -12.055576 20.588032
v 89.247505 -25.183466 26.271330
v 91.840210 -12.055576 20.588032
v 92.184242 -12.268823 20.764467
v 89.662941 -25.035202 26.291254
v 92.184242 -12.268823 20.764467
v 89.637947 -12.068418 20.968405
v 89.644104 -11.898821 20.035053
v 87.063507 -24.965443 25.691826
v 87.242493 -24.197548 26.219316
v 89.644104 -11.898821 20.035053
v 89.929977 -12.706489 19.627743
v 88.258011 -12.680587 20.105198
v 86.027138 -23.976397 24.995352
v 88.258011 -12.680587 20.105198
v 109.869980 -19.445868 28.909668
v 107.514069 -17.877972 27.646446
v 108.985146 -17.899784 27.104141
v 108.092667 -22.418716 29.060467
v 106.783768 -21.575844 29.247318
v 109.670914 -20.453817 29.346027
v 108.985146 -17.899784 27.104141
v 107.813309 -18.531778 26.272715
v 110.169861 -20.101105 27.532936
v 104.187729 -16.090330 26.074894
v 106.284546 -16.403835 25.803902
v 104.900772 -23.410482 28.837202
v 102.874130 -22.741592 28.954342
v 106.284546 -16.403835 25.803902
v 104.487617 -16.745571 24.698164
v 99.691879 -13.994530 24.082792
v 100.131760 -13.391243 23.029854
v 103.194504 -14.840289 24.386654
v 101.306099 -24.402054 28.526112
v 97.782310 -25.287537 28.179964
v 97.711502 -24.021969 28.423849
v 103.194504 -14.840289 24.386654
v 100.131760 -13.391243 23.029854
v 99.987183 -14.639754 22.727097
v 111.461388 -19.554123 28.430893
v 111.955978 -19.982758 28.742630
v 111.773849 -20.904926 29.141857
v 111.129211 -21.236086 29.159046
v 111.955978 -19.982758 28.742630
v 111.461388 -19.554123 28.430893
v 112.144714 -20.257492 28.914499
v 109.670914 -20.453817 29.346027
v 112.063026 -20.671083 29.093555
v 111.773849 -20.904926 29.141857
v 112.144714 -20.257492 28.914499
v 110.607254 -18.923368 27.944641
v 110.058456 -21.702129 29.147615
v 110.607254 -18.923368 27.944641
v 112.172348 -20.471699 29.022469
v 110.280815 -19.995066 29.260542
v 110.580704 -20.650307 27.883812
v 112.172348 -20.471699 29.022469
v 96.968506 -14.104568 23.549599
v 93.345779 -13.990870 22.706356
v 95.140457 -13.515601 22.001797
v 93.005188 -24.327347 26.682392
v 91.575966 -22.952150 26.585846
v 95.122452 -23.451876 27.596207
v 95.140457 -13.515601 22.001797
v 93.643051 -14.640382 21.341644
v 97.266426 -14.755520 22.181885
v 97.454926 -13.511133 22.503822
v 95.241005 -24.721157 27.356844
v 97.454926 -13.511133 22.503822
v 93.217041 -13.444486 21.548983
v 91.118073 -24.072412 26.149994
v 93.217041 -13.444486 21.548983
v 90.918716 -13.543953 21.945827
v 91.532951 -13.291042 21.109112
v 89.430344 -23.937349 25.718077
v 89.053314 -22.989294 26.034876
v 91.532951 -13.291042 21.109112
v 91.209450 -14.179160 20.611179
v 91.806473 -12.647741 20.862514
v 89.444908 -24.605309 26.039154
v 91.806473 -12.647741 20.862514
v 91.626907 -12.950150 20.967333
v 90.834488 -12.348103 21.388960
v 88.511642 -24.109592 26.480717
v 89.388771 -24.282721 25.873398
v 91.135689 -13.006203 20.006218
v 91.626907 -12.950150 20.967333
v 98.370743 -18.974615 26.184368
v 97.711502 -24.021969 28.423849
v 95.122452 -23.451876 27.596207
v 98.671951 -19.632715 24.801620
v 88.409134 -18.122255 23.608795
v 91.575966 -22.952150 26.585846
v 88.710342 -18.780361 22.226046
v 89.053314 -22.989294 26.034876
v 80.263260 -13.002686 19.393972
v 80.236343 -12.405459 18.226917
v 81.020065 -12.432014 18.410273
v 78.933197 -22.998669 22.984760
v 78.165207 -22.892456 22.766926
v 78.544884 -21.703554 23.160732
v 81.020065 -12.432014 18.410273
v 80.236343 -12.405459 18.226917
v 80.563812 -13.659356 18.014238
v 81.714493 -12.354359 18.524580
v 81.811386 -12.707968 19.583275
v 79.926613 -22.251352 23.714771
v 79.574387 -23.190611 23.215784
v 82.109314 -13.358915 18.215561
v 81.714493 -12.354359 18.524580
v 83.907776 -11.429804 18.562305
v 84.472198 -11.235097 18.592587
v 84.232193 -11.466326 19.485178
v 81.779869 -23.883444 24.860767
v 81.805687 -24.736755 24.437691
v 81.335648 -24.453529 24.200500
v 84.517670 -12.090090 18.174576
v 84.472198 -11.235097 18.592587
v 83.907776 -11.429804 18.562305
v 84.953979 -11.189081 18.675632
v 85.455948 -11.260077 18.818764
v 82.766449 -24.878153 24.714264
v 82.253586 -24.862312 24.595009
v 85.455948 -11.260077 18.818764
v 84.953979 -11.189081 18.675632
v 83.011238 -12.098568 19.550770
v 82.400154 -12.135747 18.569887
v 80.152344 -23.517342 23.497181
v 80.849358 -23.045116 24.289722
v 82.400154 -12.135747 18.569887
v 83.307854 -12.746651 18.189066
v 79.658234 -12.315491 18.058172
v 79.187897 -12.774237 19.031857
v 77.414459 -21.753899 22.919308
v 77.571365 -22.882141 22.632660
v 79.481903 -13.416601 17.682178
v 79.658234 -12.315491 18.058172
v 79.323456 -11.064363 18.243763
v 79.889877 -11.547104 17.742922
v 79.725105 -11.875704 17.863426
v 77.465195 -23.318565 22.817245
v 77.496841 -23.663977 22.988535
v 76.880821 -23.432465 23.598129
v 79.725105 -11.875704 17.863426
v 79.889877 -11.547104 17.742922
v 79.615494 -11.702435 16.903101
v 79.009071 -11.801847 18.549255
v 76.866531 -22.650360 23.245760
v 79.308952 -12.457088 17.172525
v 80.342636 -10.990788 17.576778
v 77.718468 -24.277992 23.329044
v 80.342636 -10.990788 17.576778
v 78.218269 -11.002050 17.996342
v 78.072845 -10.886927 17.032925
v 78.671356 -10.738749 17.092773
v 78.671356 -10.738749 17.092773
v 78.072845 -10.886927 17.032925
v 78.518150 -11.657291 16.619612
v 79.213776 -10.722854 17.203358
v 75.791359 -23.290497 23.316223
v 76.523064 -24.347057 23.101517
v 76.004837 -24.240410 22.937878
v 79.213776 -10.722854 17.203358
v 79.803780 -10.820065 17.378145
v 77.131210 -24.352362 23.236515
v 79.803780 -10.820065 17.378145
v 76.635208 -11.531199 17.891869
v 76.741188 -11.392958 16.983696
v 74.392952 -23.283125 22.131157
v 74.464859 -22.520641 22.649387
v 75.483780 -23.996437 22.708258
v 76.741188 -11.392958 16.983696
v 76.931190 -12.177853 16.533169
v 75.392517 -11.732416 16.851477
v 75.286583 -12.082146 17.852652
v 73.373978 -21.766455 22.045162
v 73.220947 -22.727985 21.611650
v 75.579933 -12.723081 16.505981
v 75.392517 -11.732416 16.851477
v 59.217884 -10.850823 13.739620
v 59.462910 -10.522070 12.805532
v 57.350632 -21.217396 17.435722
v 57.357319 -20.271658 17.818058
v 27.402397 -19.623310 11.022790
v 34.814644 -19.687771 12.675714
v 28.963995 -19.602161 11.341393
v 39.958027 -19.999758 13.936912
v 42.604031 -19.706251 14.381248
v 58.111839 -15.529889 15.775412
v 75.645325 -17.030132 20.308704
v 72.024231 -21.297548 21.531809
v 72.024231 -21.297548 21.531809
v 75.946526 -17.688232 18.925957
v 73.373978 -21.766455 22.045162
v 78.544884 -21.703554 23.160732
v 77.414459 -21.753899 22.919308
v 79.926613 -22.251352 23.714771
v 85.438515 -22.546766 25.052181
v 83.251526 -22.184805 24.395859
v 86.341881 -23.111082 25.506050
v 106.783768 -21.575844 29.247318
v 102.874130 -22.741592 28.954342
v 26.982666 -13.876741 6.469249
v 25.954445 -13.216032 6.788632
v 25.563305 -13.494112 6.835779
v 26.180916 -14.321829 6.498781
v 25.773849 -13.371931 6.823495
v 24.730549 -14.213759 6.173545
v 24.889435 -13.467607 6.676378
v 23.996124 -13.456594 6.476551
v 23.270611 -14.320574 5.963810
v 23.224083 -13.505808 6.331800
v 22.920628 -13.542150 6.282999
v 22.610161 -13.630859 6.257591
v 21.097466 -14.345718 6.268311
v 20.426075 -14.475193 6.183686
v 21.249699 -15.925948 6.176603
v 21.780056 -14.058309 6.280210
v 19.703876 -16.722542 6.261132
v 19.543434 -14.477564 5.992551
v 18.518692 -14.424147 5.743914
v 19.088509 -16.663069 6.933622
v 19.842052 -19.353876 8.378415
v 20.886322 -22.645922 10.172693
v 21.428272 -22.214382 9.212229
v 21.409954 -22.822800 9.516954
v 21.429325 -23.857563 10.867638
v 24.185371 -26.643696 11.920876
v 22.991947 -25.522829 11.127453
v 22.810242 -25.748413 12.068371
v 22.180511 -24.451958 10.444866
v 22.010559 -24.841930 11.462748
v 25.230576 -27.327816 12.466487
v 24.742882 -27.222271 13.190815
v 25.829914 -27.819984 13.712074
v 23.590328 -26.450716 12.572544
v 26.428448 -27.987978 13.041611
v 27.040325 -28.184010 13.275858
v 26.686031 -28.204792 14.081703
v 27.806795 -28.581072 14.504924
v 24.790237 -21.310200 9.510393
v 24.571552 -22.687214 10.118130
v 25.626667 -21.500025 10.659896
v 25.481651 -22.453411 11.082060
v 25.474533 -23.197395 11.434599
v 24.605904 -23.777447 10.644499
v 24.763969 -24.836023 11.178913
v 25.591522 -24.138926 11.908194
v 25.144928 -25.890495 11.763761
v 25.829739 -25.056561 12.396821
v 25.793671 -26.802757 12.339249
v 26.148415 -25.853346 12.845455
v 26.679718 -27.751261 12.991346
v 26.814747 -27.131618 13.598978
v 27.196625 -27.709499 13.957195
v 29.257336 -20.243095 9.994718
v 27.699669 -20.272823 9.658084
v 28.108957 -20.865017 10.898382
v 26.054985 -20.666222 9.483227
v 26.221016 -21.254915 10.672703
v 27.061501 -21.027746 10.747667
v 40.255959 -20.650705 12.569197
v 35.114532 -20.343012 11.298983
v 37.879269 -21.118418 13.147226
v 39.720184 -21.388090 13.676569
v 29.136213 -20.787800 11.085392
v 34.861629 -20.941219 12.405562
v 41.620293 -21.450832 13.270170
v 40.617462 -21.648682 13.996048
v 41.581841 -22.058319 14.401077
v 69.903687 -22.129484 20.604214
v 71.806641 -22.354620 21.125877
v 72.319534 -21.942772 20.176113
v 57.350632 -21.217396 17.435722
v 57.642147 -20.893993 16.510466
v 45.885040 -20.395239 14.546909
v 44.793873 -20.003006 13.280052
v 44.654083 -20.408298 14.284992
v 42.903919 -20.361492 13.004517
v 43.685326 -20.627607 14.178347
v 42.690475 -21.097038 14.185061
v 83.214798 -23.922686 24.357185
v 82.703903 -24.750427 23.774376
v 83.471069 -24.782675 24.822308
v 82.828773 -23.850658 23.358025
v 83.235321 -23.650284 24.232010
v 83.348579 -23.413849 24.144154
v 83.545517 -22.827169 23.046181
v 84.412018 -23.473688 24.404278
v 85.234428 -23.590794 24.639156
v 85.734474 -23.193420 23.693481
v 86.633911 -23.749153 24.165390
v 85.675087 -23.753113 24.812401
v 87.548203 -25.224995 25.920933
v 88.144997 -25.338367 26.104891
v 88.314232 -25.235966 25.212231
v 88.632385 -25.314644 26.199766
v 88.843498 -25.250832 25.349907
v 89.247505 -25.183466 26.271330
v 89.662941 -25.035202 26.291254
v 87.534531 -24.835619 24.878658
v 87.063507 -24.965443 25.691826
v 86.027138 -23.976397 24.995352
v 109.970795 -21.109058 27.969292
v 107.082993 -22.229649 27.873590
v 108.092667 -22.418716 29.060467
v 103.174026 -23.396830 27.577612
v 104.900772 -23.410482 28.837202
v 98.006805 -24.667198 27.068153
v 97.782310 -25.287537 28.179964
v 101.306099 -24.402054 28.526112
v 111.129211 -21.236086 29.159046
v 111.773849 -20.904926 29.141857
v 112.063026 -20.671083 29.093555
v 110.058456 -21.702129 29.147615
v 95.420372 -24.102821 26.228493
v 91.873245 -23.601662 25.221142
v 93.005188 -24.327347 26.682392
v 95.241005 -24.721157 27.356844
v 91.118073 -24.072412 26.149994
v 89.344040 -23.624500 24.700230
v 89.430344 -23.937349 25.718077
v 89.444908 -24.605309 26.039154
v 89.388771 -24.282721 25.873398
v 88.812843 -24.767693 25.097973
v 78.845428 -22.360224 21.780994
v 78.165207 -22.892456 22.766926
v 78.933197 -22.998669 22.984760
v 79.574387 -23.190611 23.215784
v 80.224548 -22.902298 22.347057
v 81.335648 -24.453529 24.200500
v 81.805687 -24.736755 24.437691
v 82.065346 -24.507210 23.550167
v 82.253586 -24.862312 24.595009
v 82.766449 -24.878153 24.714264
v 81.145973 -23.693205 22.928020
v 80.152344 -23.517342 23.497181
v 77.571365 -22.882141 22.632660
v 77.708450 -22.396263 21.569630
v 77.172852 -24.070534 22.257467
v 77.496841 -23.663977 22.988535
v 77.465195 -23.318565 22.817245
v 77.166435 -23.305595 21.869030
v 77.718468 -24.277992 23.329044
v 76.091255 -23.945738 21.939493
v 75.483780 -23.996437 22.708258
v 76.004837 -24.240410 22.937878
v 76.523064 -24.347057 23.101517
v 77.131210 -24.352362 23.236515
v 74.760818 -23.167299 21.290688
v 74.392952 -23.283125 22.131157
v 73.220947 -22.727985 21.611650
v 73.667320 -22.407391 20.698486
vn -0.7244 0.5428 -0.4250
vn -0.2266 0.4810 0.8469
vn -0.9647 0.0721 -0.2534
vn -0.2020 0.4152 0.8870
vn -0.1760 0.3467 0.9213
vn -0.1912 0.3481 0.9177
vn -0.1936 0.3779 0.9054
vn -0.1868 0.4139 0.8910
vn -0.2114 0.3647 0.9068
vn -0.1581 0.3598 0.9195
vn -0.1873 0.3700 0.9100
vn -0.2062 0.3048 0.9298
vn -0.1949 0.3707 0.9081
vn -0.1692 0.4624 0.8704
vn -0.1632 0.5240 0.8359
vn 0.2026 0.8974 -0.3919
vn 0.3796 0.8619 -0.3364
vn 0.5362 0.7989 -0.2723
vn -0.1372 0.4663 0.8739
vn 0.8190 0.5652 -0.0994
vn -0.0306 0.6907 0.7225
vn 0.5302 0.8020 -0.2751
vn -0.1632 0.8729 -0.4598
vn -0.1905 0.4714 0.8611
vn -0.1782 0.4562 0.8719
vn 0.2102 0.8966 -0.3898
vn 0.0731 0.9033 -0.4228
vn 0.2327 0.8937 -0.3835
vn 0.2698 0.8879 -0.3727
vn -0.1647 0.4831 0.8599
vn 0.3586 0.8679 -0.3438
vn -0.1495 0.4816 0.8635
vn 0.4864 0.8226 -0.2944
vn 0.5843 0.7724 -0.2492
vn -0.1525 0.4679 0.8705
vn 0.9556 0.2880 0.0623
vn -0.2343 0.3666 0.9004
vn -0.2503 0.3603 0.8986
vn -0.9100 -0.4145 -0.0098
vn -0.7544 -0.6428 0.1327
vn -0.2830 -0.8885 0.3612
vn -0.2453 0.3452 0.9059
vn -0.2312 -0.8971 0.3766
vn -0.3345 -0.8771 0.3446
vn -0.2453 0.3451 0.9059
vn -0.1458 0.4244 0.8937
vn -0.0435 0.3822 0.9231
vn 0.9373 -0.1879 0.2936
vn 0.8959 -0.2926 0.3344
vn -0.0098 0.3472 0.9377
vn 0.8445 -0.3884 0.3688
vn 0.0074 0.3065 0.9518
vn 0.7728 -0.4911 0.4021
vn 0.0493 0.2137 0.9756
vn 0.6750 -0.5983 0.4318
vn 0.1370 0.0557 0.9890
vn 0.5915 -0.6704 0.4479
vn 0.2544 -0.2306 0.9392
vn 0.6001 -0.6637 0.4466
vn -0.2573 0.9105 0.3236
vn 0.2585 0.5915 0.7638
vn 0.8573 0.5117 -0.0568
vn -0.0837 0.8890 -0.4502
vn -0.2038 0.8623 -0.4636
vn -0.3049 0.8079 0.5043
vn -0.3267 0.7152 0.6179
vn -0.3454 0.6299 0.6957
vn -0.3492 0.5590 0.7520
vn -0.3141 0.4917 0.8121
vn -0.3788 0.5257 0.7616
vn -0.7009 0.5678 -0.4317
vn -0.7712 0.4878 -0.4090
vn -0.7879 0.4662 -0.4023
vn -0.5813 0.6738 -0.4562
vn -0.4662 0.7509 -0.4678
vn -0.3715 0.8003 -0.4707
vn -0.2705 0.8412 -0.4681
vn -0.4192 0.4779 0.7719
vn -0.8060 0.4414 -0.3945
vn -0.8573 -0.5117 0.0568
vn -0.5287 -0.8053 0.2681
vn -0.2265 0.3659 0.9027
vn -0.7727 -0.6218 0.1276
vn -0.5632 -0.7870 0.2519
vn -0.6728 -0.7141 0.1934
vn -0.4657 -0.8341 0.2956
vn -0.7243 0.5429 -0.4250
vn -0.4852 0.7395 -0.4665
vn -0.2131 0.4731 0.8548
vn 0.0654 0.9031 -0.4244
vn -0.2161 0.4941 0.8421
vn -0.1734 0.3613 0.9162
vn -0.0008 -0.9030 0.4296
vn -0.1912 0.3482 0.9177
vn 0.1407 -0.8817 0.4503
vn 0.2554 -0.8503 0.4603
vn 0.8075 -0.4447 0.3875
vn -0.1500 0.4030 0.9028
vn 0.0112 0.9004 -0.4349
vn 0.1188 0.9031 -0.4128
vn -0.1320 0.8799 -0.4564
vn -0.3775 0.7975 -0.4706
vn -0.5090 0.7246 -0.4646
vn -0.2056 0.4725 0.8570
vn -0.2440 0.8501 -0.4666
vn -0.4401 0.3713 0.8176
vn 0.1189 0.9030 -0.4128
vn -0.6322 0.6324 -0.4475
vn -0.9502 -0.3034 -0.0714
vn -0.9446 -0.3240 -0.0515
vn -0.3405 0.3570 0.8698
vn -0.0365 0.4176 0.9079
vn 0.9786 0.0169 0.2051
vn 0.0084 0.4393 0.8983
vn 0.9801 0.1252 0.1539
vn 0.9685 0.2269 0.1030
vn 0.0396 0.4695 0.8820
vn 0.9398 0.3389 0.0434
vn 0.1122 0.5318 0.8394
vn 0.8877 0.4598 -0.0255
vn 0.2474 0.6134 0.7500
vn 0.8365 0.5415 -0.0843
vn 0.4438 0.7225 0.5301
vn 0.8410 0.5363 -0.0720
vn 0.1563 0.0756 0.9848
vn 0.6256 -0.6427 0.4422
vn -0.4223 -0.8507 0.3130
vn -0.4836 -0.2690 0.8329
vn -0.4750 -0.0622 0.8778
vn -0.4503 0.0831 0.8890
vn -0.4298 0.1976 0.8810
vn -0.4031 0.2834 0.8702
vn -0.4189 0.3207 0.8495
vn -0.9343 -0.3538 -0.0439
vn -0.8968 -0.4424 0.0064
vn -0.8219 -0.5640 0.0806
vn -0.7405 -0.6568 0.1425
vn -0.6682 -0.7198 0.1882
vn -0.5855 -0.7741 0.2409
vn -0.5288 -0.8053 0.2681
vn -0.0944 -0.9067 0.4110
vn -0.1326 -0.9059 0.4022
vn -0.1555 -0.9047 0.3967
vn -0.2757 -0.8899 0.3635
vn -0.4933 -0.8222 0.2838
vn -0.1576 0.0822 0.9841
vn 0.1914 -0.8694 0.4555
vn 0.5651 -0.6904 0.4517
vn 0.1984 -0.8675 0.4561
vn -0.1873 0.3700 0.9099
vn 0.0218 -0.9009 0.4335
vn -0.1632 -0.9042 0.3948
vn -0.1631 -0.9042 0.3948
vn -0.1439 0.3053 0.9413
vn 0.3888 -0.7962 0.4636
vn 0.5380 -0.7096 0.4549
vn 0.3049 -0.8325 0.4626
vn 0.2819 -0.8410 0.4617
vn -0.1595 0.3079 0.9380
vn 0.2221 -0.8607 0.4580
vn -0.1671 0.3086 0.9364
vn 0.1745 -0.8738 0.4539
vn -0.1847 0.2944 0.9377
vn -0.0325 -0.9052 0.4238
vn -0.2189 0.3208 0.9215
vn -0.1962 0.3634 0.9107
vn -0.1479 -0.9051 0.3986
vn -0.1797 0.3693 0.9118
vn 0.3148 -0.8286 0.4630
vn 0.0893 0.3881 0.9173
vn 0.9812 0.0892 0.1712
vn 0.9446 0.3240 0.0515
vn 0.1876 -0.0352 0.9816
vn 0.9688 -0.0612 0.2402
vn 0.0536 -0.8971 0.4386
vn -0.1783 -0.9030 0.3909
vn -0.3634 -0.1358 0.9217
vn -0.4039 0.1739 0.8981
vn -0.2516 0.3530 0.9012
vn -0.5533 -0.7949 0.2489
vn -0.2228 0.3434 0.9124
vn -0.2985 -0.8854 0.3563
vn -0.1819 0.3989 0.8988
vn 0.4141 -0.7836 0.4632
vn 0.0597 0.3272 0.9431
vn 0.9536 -0.1321 0.2706
vn 0.9803 0.1424 0.1369
vn 0.1376 0.1029 0.9851
vn -0.0097 -0.9037 0.4280
vn -0.2535 -0.8937 0.3701
vn -0.4833 -0.8293 0.2806
vn -0.4472 0.0261 0.8940
vn -0.3963 0.1809 0.9001
vn -0.2176 0.3726 0.9021
vn -0.6602 -0.7238 0.2007
vn -0.6805 -0.7080 0.1888
vn -0.4621 -0.8382 0.2895
vn -0.4622 -0.8382 0.2895
vn -0.3711 -0.8673 0.3319
vn -0.2201 0.3135 0.9237
vn -0.1402 -0.9055 0.4004
vn -0.1784 0.3765 0.9091
vn 0.6592 -0.6131 0.4354
vn 0.0276 0.3704 0.9285
vn 0.9791 0.0239 0.2019
vn -0.3522 0.1803 0.9184
vn -0.2290 0.3513 0.9078
vn -0.4871 -0.8250 0.2866
vn -0.5574 -0.7902 0.2547
vn -0.2609 -0.8925 0.3679
vn -0.3596 0.0466 0.9320
vn 0.0790 0.0426 0.9960
vn 0.8132 -0.4365 0.3849
vn -0.0248 -0.9048 0.4252
vn -0.1859 -0.9023 0.3890
vn -0.3795 -0.8647 0.3289
vn -0.1439 0.3054 0.9413
vn 0.7330 -0.5383 0.4159
vn -0.0722 0.4010 0.9132
vn 0.9648 -0.0826 0.2495
vn 0.9200 0.3916 0.0141
vn 0.8005 0.5883 -0.1144
vn -0.1034 0.5117 0.8529
vn 0.6912 0.6973 -0.1901
vn 0.6248 0.7467 -0.2281
vn 0.6062 0.7589 -0.2380
vn -0.1192 0.5128 0.8502
vn -0.2177 0.3726 0.9021
vn -0.2291 0.3513 0.9078
vn -0.1768 0.4631 0.8685
vn 0.0883 0.9034 -0.4196
vn -0.1561 0.8746 -0.4591
vn -0.2026 0.4863 0.8500
vn -0.2617 0.6423 0.7204
vn -0.2372 0.8523 -0.4662
vn -0.2440 0.8502 -0.4666
vn -0.1630 0.4548 0.8755
vn 0.0346 0.4059 0.9133
vn -0.2290 0.7423 0.6297
vn -0.0370 0.8957 -0.4432
vn 0.1646 0.9008 -0.4017
vn 0.1982 0.6454 0.7376
vn 0.3360 0.8738 -0.3515
vn 0.9573 0.2790 0.0758
vn 0.9347 -0.1957 0.2967
vn 0.8790 0.4748 -0.0433
vn 0.2252 0.8947 -0.3857
vn -0.1798 0.5187 0.8358
vn -0.0279 0.8967 -0.4417
vn -0.1995 0.4651 0.8625
vn -0.1247 0.8814 -0.4555
vn -0.3617 0.8048 -0.4706
vn -0.3051 0.6417 0.7037
vn -0.1749 0.4345 0.8835
vn -0.1935 0.4925 0.8485
vn 0.1188 0.9030 -0.4128
vn 0.7078 0.6852 -0.1719
vn 0.0807 0.4333 0.8976
vn -0.3049 0.7541 0.5817
vn -0.1489 0.8762 -0.4583
vn 0.2321 0.5804 0.7805
vn 0.0959 0.9034 -0.4179
vn 0.3429 0.8750 -0.3418
vn 0.8889 -0.3073 0.3398
vn 0.9722 -0.0399 0.2307
vn 0.0493 0.9026 -0.4277
vn -0.2304 0.8544 -0.4657
vn -0.2251 0.4878 0.8434
vn -0.3110 0.6487 0.6946
vn -0.3873 0.7928 -0.4705
vn -0.1247 0.8814 -0.4556
vn -0.1702 0.8500 0.4986
vn 0.1874 0.8990 -0.3959
vn 0.0852 0.3668 0.9264
vn 0.3234 0.6496 0.6880
vn 0.4085 0.8527 -0.3257
vn 0.5563 0.7883 -0.2628
vn 0.9588 -0.1109 0.2616
vn 0.7832 -0.4777 0.3979
vn 0.9111 -0.2581 0.3213
vn 0.6328 0.7412 -0.2238
vn -0.1616 0.4617 0.8722
vn -0.1753 0.4701 0.8650
vn 0.2177 0.8957 -0.3878
vn -0.1814 0.5120 0.8396
vn -0.1385 0.5292 0.8371
vn 0.3289 0.8755 -0.3539
vn 0.5157 0.8091 -0.2816
vn -0.1269 0.5136 0.8486
vn -0.9100 -0.4146 -0.0097
vn 0.1434 -0.4740 -0.8688
vn -0.9647 0.0721 -0.2533
vn -0.7544 -0.6428 0.1328
vn 0.1601 -0.4686 -0.8688
vn 0.1481 -0.4884 -0.8599
vn 0.2239 -0.3804 -0.8973
vn 0.1480 -0.4885 -0.8599
vn -0.4658 -0.8341 0.2955
vn -0.6728 -0.7141 0.1933
vn 0.1677 -0.4694 -0.8669
vn 0.2308 -0.4246 -0.8755
vn 0.9556 0.2880 0.0622
vn 0.3319 -0.4434 -0.8326
vn 0.0733 -0.3493 -0.9341
vn -0.0402 -0.3456 -0.9375
vn -0.7878 0.4663 -0.4024
vn 0.0015 -0.3004 -0.9538
vn -0.7009 0.5678 -0.4318
vn 0.0312 -0.2669 -0.9632
vn -0.5812 0.6738 -0.4562
vn 0.0270 -0.1785 -0.9836
vn 0.3626 -0.4717 -0.8037
vn 0.8445 -0.3883 0.3688
vn 0.3770 -0.5060 -0.7758
vn 0.0266 -0.0569 -0.9980
vn -0.2705 0.8412 -0.4682
vn 0.0281 0.0869 -0.9958
vn 0.4094 -0.5776 -0.7063
vn 0.4704 -0.6767 -0.5664
vn 0.0271 0.2974 -0.9544
vn 0.5909 -0.1546 -0.7918
vn 0.6001 -0.6636 0.4466
vn 0.5171 -0.8077 -0.2832
vn 0.5842 0.7724 -0.2491
vn 0.4864 0.8227 -0.2944
vn 0.2265 -0.3659 -0.9027
vn 0.3585 0.8679 -0.3438
vn 0.2114 -0.3647 -0.9068
vn 0.2698 0.8879 -0.3726
vn 0.1985 -0.3930 -0.8978
vn 0.2012 -0.3786 -0.9034
vn 0.3233 -0.1065 -0.9403
vn 0.8189 0.5652 -0.0994
vn 0.2389 -0.3816 -0.8929
vn 0.1930 -0.4217 -0.8860
vn 0.1645 -0.3678 -0.9152
vn -0.4852 0.7396 -0.4665
vn 0.1784 -0.3766 -0.9091
vn 0.2026 -0.4862 -0.8500
vn 0.1875 -0.4851 -0.8541
vn 0.1858 -0.4569 -0.8699
vn 0.2056 -0.4725 -0.8570
vn 0.1747 -0.3540 -0.9188
vn -0.5089 0.7247 -0.4646
vn 0.1860 -0.3773 -0.9072
vn 0.2294 -0.4317 -0.8724
vn 0.2554 -0.8502 0.4603
vn 0.3361 -0.4222 -0.8419
vn 0.0495 -0.4696 -0.8815
vn -0.0584 -0.4379 -0.8971
vn -0.2039 0.8623 -0.4636
vn -0.6323 0.6324 -0.4476
vn -0.9502 -0.3035 -0.0714
vn -0.9446 -0.3241 -0.0515
vn -0.0362 -0.4911 -0.8704
vn -0.0205 -0.5282 -0.8489
vn 0.3782 -0.3939 -0.8378
vn 0.9801 0.1253 0.1539
vn 0.4066 -0.3573 -0.8408
vn -0.0556 -0.5965 -0.8007
vn -0.8219 -0.5640 0.0805
vn -0.0907 -0.6806 -0.7270
vn 0.4701 -0.2736 -0.8391
vn 0.8876 0.4598 -0.0255
vn -0.1414 -0.7711 -0.6208
vn 0.5794 -0.1320 -0.8043
vn -0.2039 -0.8727 -0.4436
vn 0.7064 0.1364 -0.6946
vn 0.8410 0.5363 -0.0721
vn 0.4902 -0.6574 -0.5723
vn -0.4223 -0.8508 0.3129
vn 0.5362 0.7990 -0.2723
vn 0.2075 -0.3864 -0.8987
vn 0.3795 0.8619 -0.3363
vn 0.1929 -0.4217 -0.8860
vn 0.2114 -0.3202 -0.9235
vn 0.1999 -0.3858 -0.9007
vn 0.1886 -0.3627 -0.9126
vn 0.2137 -0.3943 -0.8938
vn 0.1093 -0.1690 -0.9795
vn -0.2372 0.8523 -0.4661
vn -0.0370 0.8956 -0.4432
vn 0.1309 -0.0373 -0.9907
vn 0.1647 0.9008 -0.4018
vn 0.4021 -0.4224 -0.8123
vn 0.5385 -0.1055 -0.8360
vn 0.9347 -0.1956 0.2967
vn 0.8790 0.4749 -0.0434
vn 0.2251 0.8947 -0.3857
vn 0.2101 -0.3275 -0.9212
vn 0.1923 -0.3852 -0.9026
vn -0.1248 0.8814 -0.4556
vn -0.3616 0.8048 -0.4707
vn 0.0627 -0.1619 -0.9848
vn 0.2020 -0.4152 -0.8870
vn 0.4443 -0.3857 -0.8086
vn 0.0459 -0.0061 -0.9989
vn 0.5737 -0.1735 -0.8005
vn 0.9786 0.0168 0.2052
vn 0.8889 -0.3072 0.3399
vn 0.9722 -0.0398 0.2307
vn 0.0492 0.9026 -0.4277
vn 0.1975 -0.3561 -0.9133
vn 0.1657 -0.3606 -0.9179
vn 0.1928 -0.4217 -0.8860
vn 0.1978 -0.4365 -0.8777
vn 0.1768 -0.4631 -0.8685
vn 0.1723 -0.5181 -0.8378
vn 0.2010 -0.4581 -0.8659
vn 0.1648 -0.4831 -0.8599
vn 0.1844 -0.4638 -0.8665
vn -0.4870 -0.8250 0.2866
vn 0.0265 -0.6228 -0.7820
vn 0.1707 -0.5247 -0.8340
vn 0.1919 -0.4645 -0.8645
vn 0.2206 -0.4736 -0.8526
vn 0.1829 -0.4707 -0.8631
vn -0.1326 -0.9059 0.4023
vn -0.2756 -0.8899 0.3635
vn -0.4934 -0.8222 0.2839
vn 0.2040 -0.7080 -0.6762
vn 0.0219 -0.9009 0.4335
vn -0.0049 -0.7229 -0.6909
vn -0.1860 -0.9023 0.3889
vn 0.4166 -0.6997 -0.5804
vn -0.0249 -0.9048 0.4252
vn 0.3979 -0.4437 -0.8030
vn -0.1403 -0.9055 0.4004
vn -0.0206 -0.6161 -0.7874
vn 0.4259 -0.4776 -0.7684
vn -0.0955 -0.7210 -0.6863
vn -0.4834 -0.8292 0.2806
vn 0.4810 -0.6474 -0.5912
vn 0.4141 -0.7836 0.4631
vn 0.1708 -0.4906 -0.8545
vn -0.2985 -0.8854 0.3564
vn -0.5533 -0.7949 0.2490
vn 0.1419 -0.4808 -0.8652
vn -0.0295 -0.6204 -0.7837
vn -0.6805 -0.7080 0.1887
vn -0.0343 -0.8334 -0.5517
vn -0.1784 -0.9030 0.3909
vn 0.4515 -0.4281 -0.7828
vn 0.5006 -0.7224 -0.4770
vn 0.9446 0.3241 0.0515
vn 0.9812 0.0892 0.1713
vn 0.3148 -0.8286 0.4629
vn 0.1995 -0.4651 -0.8625
vn 0.1738 -0.5114 -0.8416
vn -0.2829 -0.8885 0.3612
vn 0.1917 -0.5339 -0.8235
vn -0.0325 -0.9052 0.4237
vn 0.2099 -0.5209 -0.8274
vn 0.2221 -0.8608 0.4580
vn 0.2173 -0.5214 -0.8252
vn 0.2326 -0.5230 -0.8200
vn 0.7330 -0.5384 0.4158
vn 0.3048 -0.4284 -0.8506
vn 0.9649 -0.0826 0.2495
vn 0.9200 0.3916 0.0140
vn 0.2707 -0.3313 -0.9039
vn 0.6912 0.6972 -0.1901
vn 0.2552 -0.3310 -0.9085
vn 0.2478 -0.3305 -0.9107
vn 0.5157 0.8092 -0.2816
vn 0.2438 -0.3079 -0.9197
vn 0.2089 -0.3348 -0.9188
vn 0.2150 -0.3871 -0.8966
vn 0.2176 0.8957 -0.3878
vn 0.6328 0.7413 -0.2238
vn 0.4501 -0.4352 -0.7797
vn 0.9111 -0.2580 0.3213
vn 0.7832 -0.4777 0.3980
vn 0.6354 -0.0493 -0.7706
vn 0.9588 -0.1109 0.2617
vn 0.4085 0.8527 -0.3256
vn 0.1875 0.8989 -0.3959
vn 0.1518 0.1432 -0.9780
vn 0.0616 -0.1598 -0.9852
vn -0.3872 0.7928 -0.4706
vt 0.497908 1.081010
vt 0.503789 1.090795
vt 0.495089 1.081396
vt 0.495089 1.092698
vt 0.645690 1.111400
vt 0.642099 1.127595
vt 0.632989 1.188689
vt 0.495089 1.260194
vt 0.630001 1.242890
vt 0.618409 1.269907
vt 0.607010 1.288897
vt 0.602503 1.424509
vt 0.495089 1.422701
vt 0.597610 1.579400
vt 0.383095 1.288897
vt 0.387699 1.424509
vt 0.373094 1.424292
vt 0.369599 1.303189
vt 0.366900 1.290392
vt 0.360200 1.280800
vt 0.371696 1.269907
vt 0.347692 1.271401
vt 0.344608 1.258796
vt 0.324002 1.261809
vt 0.331401 1.250988
vt 0.360104 1.242890
vt 0.357091 1.188689
vt 0.338004 1.221393
vt 0.335498 1.241107
vt 0.336197 1.189605
vt 0.328702 1.129692
vt 0.348006 1.127595
vt 0.324990 1.119088
vt 0.344391 1.111400
vt 0.319303 1.108508
vt 0.312603 1.100290
vt 0.332509 1.095109
vt 0.305903 1.094602
vt 0.474893 1.083396
vt 0.486292 1.090795
vt 0.492293 1.081010
vt 0.488509 1.079395
vt 0.485304 1.077491
vt 0.474194 1.068189
vt 0.484605 1.070406
vt 0.483111 1.061103
vt 0.468506 1.053295
vt 0.315712 1.083299
vt 0.284406 1.083806
vt 0.284309 1.095109
vt 0.267608 1.096506
vt 0.259992 1.086408
vt 0.246689 1.099591
vt 0.236591 1.090192
vt 0.226589 1.104001
vt 0.213696 1.096410
vt 0.209406 1.108990
vt 0.194392 1.104990
vt 0.182004 1.118510
vt 0.174798 1.116196
vt 0.169810 1.123691
vt 0.169111 1.114003
vt 0.165809 1.120799
vt 0.151397 1.131789
vt 0.157591 1.119401
vt 0.164604 1.109689
vt 0.181595 1.100194
vt 0.194898 1.087903
vt 0.217696 1.073201
vt 0.240110 1.062598
vt 0.288888 1.050089
vt 0.275103 1.051198
vt 0.245098 1.055705
vt 0.271199 1.047607
vt 0.342993 1.029990
vt 0.224107 1.063802
vt 0.205309 1.073997
vt 0.190994 1.083589
vt 0.175907 1.097205
vt 0.408401 1.021001
vt 0.401894 1.016590
vt 0.451010 1.006010
vt 0.451708 1.016807
vt 0.453492 1.025989
vt 0.429609 1.035292
vt 0.465397 1.039196
vt 0.457709 1.032689
vt 0.476604 1.047005
vt 0.479207 1.050089
vt 0.480605 1.053102
vt -0.496197 1.090795
vt -0.502101 1.081010
vt -0.498293 1.079395
vt -0.484797 1.083396
vt -0.495209 1.077491
vt -0.354295 1.111400
vt -0.484098 1.068189
vt -0.342293 1.095109
vt -0.334798 1.119088
vt -0.357910 1.127595
vt -0.329207 1.108508
vt -0.322411 1.100290
vt -0.315807 1.094602
vt -0.325496 1.083299
vt -0.478411 1.053295
vt -0.492991 1.061103
vt -0.494510 1.070406
vt -0.490509 1.053102
vt -0.489111 1.050089
vt -0.486508 1.047005
vt -0.475302 1.039196
vt -0.439393 1.035292
vt -0.467590 1.032689
vt -0.463396 1.025989
vt -0.418305 1.021001
vt -0.461589 1.016807
vt -0.460890 1.006010
vt -0.411702 1.016590
vt -0.352897 1.029990
vt -0.298793 1.050089
vt -0.294190 1.083806
vt -0.294190 1.095109
vt -0.269897 1.086408
vt -0.277392 1.096506
vt -0.256593 1.099591
vt -0.246496 1.090192
vt -0.236398 1.104001
vt -0.223504 1.096410
vt -0.219190 1.108990
vt -0.204296 1.104990
vt -0.191788 1.118510
vt -0.184703 1.116196
vt -0.179594 1.123691
vt -0.175689 1.120799
vt -0.161302 1.131789
vt -0.167495 1.119401
vt -0.178991 1.114003
vt -0.191499 1.100194
vt -0.204802 1.087903
vt -0.227601 1.073201
vt -0.249990 1.062598
vt -0.285008 1.051198
vt -0.281103 1.047607
vt -0.254906 1.055705
vt -0.233891 1.063802
vt -0.215093 1.073997
vt -0.200898 1.083589
vt -0.185811 1.097205
vt -0.174509 1.109689
vt -0.338510 1.129692
vt -0.366996 1.188689
vt -0.346101 1.189605
vt -0.347909 1.221393
vt -0.370009 1.242890
vt -0.345306 1.241107
vt -0.341305 1.250988
vt -0.354488 1.258796
vt -0.381601 1.269907
vt -0.333907 1.261809
vt -0.357597 1.271401
vt -0.370009 1.280800
vt -0.393000 1.288897
vt -0.376805 1.290392
vt -0.379504 1.303189
vt -0.397507 1.424509
vt -0.382999 1.424292
vt -0.493401 0.969595
vt -0.485810 0.984200
vt -0.494389 0.990201
vt -0.473205 0.974006
vt -0.453395 0.954991
vt -0.462698 0.941904
vt -0.425005 0.923805
vt -0.429102 0.903609
vt -0.395892 0.888402
vt -0.390711 0.852396
vt -0.369310 0.853601
vt -0.377190 0.825910
vt -0.398398 0.824296
vt -0.381697 0.801907
vt -0.402809 0.786410
vt -0.383794 0.781711
vt -0.397193 0.760093
vt -0.383601 0.763804
vt -0.370900 0.756912
vt -0.375696 0.764094
vt -0.368611 0.765395
vt -0.359911 0.758189
vt -0.359405 0.768504
vt -0.355307 0.764503
vt -0.351210 0.758406
vt -0.349692 0.753297
vt -0.359405 0.752694
vt -0.366610 0.743801
vt -0.389289 0.732209
vt -0.376202 0.728498
vt -0.380492 0.724401
vt -0.400110 0.721605
vt -0.383312 0.719508
vt -0.384396 0.710712
vt -0.404110 0.698108
vt -0.383697 0.699409
vt -0.379890 0.692709
vt -0.378106 0.698710
vt -0.371888 0.699096
vt -0.359405 0.693312
vt -0.353211 0.703506
vt -0.349692 0.696396
vt -0.348993 0.690998
vt -0.350994 0.686106
vt -0.363405 0.686202
vt -0.380107 0.674899
vt -0.396109 0.663596
vt -0.375190 0.666392
vt -0.356488 0.680611
vt -0.356006 0.741295
vt -0.351090 0.746910
vt -0.381408 0.659692
vt -0.384493 0.652607
vt -0.405701 0.648196
vt -0.385409 0.644388
vt -0.402592 0.636411
vt -0.384493 0.638195
vt -0.381312 0.632604
vt -0.374491 0.638002
vt -0.379697 0.607298
vt -0.394494 0.594405
vt -0.379600 0.592597
vt -0.402399 0.579390
vt -0.369406 0.605997
vt -0.385192 0.577101
vt -0.386589 0.556809
vt -0.397507 0.424499
vt -0.382999 0.424306
vt -0.355500 0.618794
vt -0.364899 0.622795
vt -0.363911 0.634291
vt -0.366803 0.638990
vt -0.353500 0.642605
vt -0.350704 0.636604
vt -0.349596 0.630290
vt -0.350994 0.624699
vt 0.506608 0.969595
vt 0.505596 0.990201
vt 0.499788 0.992707
vt 0.495089 0.974994
vt 0.495089 0.993502
vt 0.490293 0.992707
vt 0.484605 0.990201
vt 0.483593 0.969595
vt 0.475905 0.984200
vt 0.463397 0.974006
vt 0.443490 0.954991
vt 0.452889 0.941904
vt 0.495089 0.848998
vt 0.537312 0.941904
vt 0.570907 0.903609
vt 0.609299 0.852396
vt 0.601611 0.824296
vt 0.597201 0.786410
vt 0.495089 0.743488
vt 0.602792 0.760093
vt 0.610697 0.732209
vt 0.599900 0.721605
vt 0.595899 0.698108
vt 0.495089 0.608407
vt 0.603901 0.663596
vt 0.594309 0.648196
vt 0.597394 0.636411
vt 0.605491 0.594405
vt 0.597610 0.579390
vt 0.495089 0.422692
vt 0.392591 0.579390
vt 0.387699 0.424499
vt 0.376709 0.556809
vt 0.373094 0.424306
vt 0.375311 0.577101
vt 0.369696 0.592597
vt 0.384590 0.594405
vt 0.369792 0.607298
vt 0.359501 0.605997
vt 0.345596 0.618794
vt 0.392711 0.636411
vt 0.371407 0.632604
vt 0.354995 0.622795
vt 0.341089 0.624699
vt 0.339691 0.630290
vt 0.354103 0.634291
vt 0.340800 0.636604
vt 0.343595 0.642605
vt 0.356899 0.638990
vt 0.364611 0.638002
vt 0.374588 0.638195
vt 0.375504 0.644388
vt 0.395893 0.648196
vt 0.374588 0.652607
vt 0.386204 0.663596
vt 0.371503 0.659692
vt 0.365310 0.666392
vt 0.370298 0.674899
vt 0.346608 0.680611
vt 0.394206 0.698108
vt 0.390205 0.721605
vt 0.374492 0.710712
vt 0.373793 0.699409
vt 0.370009 0.692709
vt 0.353501 0.686202
vt 0.341209 0.686106
vt 0.349500 0.693312
vt 0.339209 0.690998
vt 0.339812 0.696396
vt 0.343306 0.703506
vt 0.362104 0.699096
vt 0.368298 0.698710
vt 0.373407 0.719508
vt 0.370612 0.724401
vt 0.379408 0.732209
vt 0.366298 0.728498
vt 0.356802 0.743801
vt 0.346102 0.741295
vt 0.341209 0.746910
vt 0.349500 0.752694
vt 0.339812 0.753297
vt 0.360996 0.756912
vt 0.350102 0.758189
vt 0.341306 0.758406
vt 0.345403 0.764503
vt 0.349596 0.768504
vt 0.358706 0.765395
vt 0.365912 0.764094
vt 0.373696 0.763804
vt 0.387409 0.760093
vt 0.392904 0.786410
vt 0.373889 0.781711
vt 0.371792 0.801907
vt 0.388494 0.824296
vt 0.367310 0.825910
vt 0.380806 0.852396
vt 0.359405 0.853601
vt 0.386012 0.888402
vt 0.419197 0.903609
vt 0.415197 0.923805
vt 0.492293 0.081000
vt 0.486292 0.090809
vt 0.495089 0.081410
vt 0.488509 0.079410
vt 0.474893 0.083410
vt 0.485304 0.077506
vt 0.484605 0.070396
vt 0.474194 0.068203
vt 0.483111 0.061094
vt 0.332509 0.095099
vt 0.468506 0.053309
vt 0.480605 0.053093
vt 0.479207 0.050104
vt 0.476604 0.046995
vt 0.465397 0.039211
vt 0.429609 0.035307
vt 0.315712 0.083290
vt 0.305903 0.094593
vt 0.284406 0.083796
vt 0.288888 0.050104
vt 0.408401 0.020991
vt 0.457709 0.032704
vt 0.453492 0.026004
vt 0.451708 0.016798
vt 0.451010 0.006001
vt 0.401894 0.016605
vt 0.342993 0.030005
vt 0.271199 0.047598
vt 0.275103 0.051189
vt 0.245098 0.055695
vt 0.240110 0.062612
vt 0.224107 0.063793
vt 0.217696 0.073192
vt 0.205309 0.074011
vt 0.259992 0.086399
vt 0.284309 0.095099
vt 0.267608 0.096497
vt 0.246689 0.099606
vt 0.236591 0.090207
vt 0.194898 0.087893
vt 0.190994 0.083603
vt 0.175907 0.097196
vt 0.181595 0.100208
vt 0.164604 0.109704
vt 0.213696 0.096400
vt 0.226589 0.103992
vt 0.209406 0.109005
vt 0.194392 0.105004
vt 0.169111 0.113993
vt 0.157591 0.119392
vt 0.165809 0.120790
vt 0.151397 0.131803
vt 0.169810 0.123706
vt 0.174798 0.116211
vt 0.182004 0.118500
vt 0.312603 0.100305
vt 0.319303 0.108499
vt 0.344391 0.111391
vt 0.324990 0.119103
vt 0.348006 0.127610
vt 0.328702 0.129707
vt 0.357091 0.188704
vt 0.336197 0.189595
vt 0.338004 0.221408
vt 0.360104 0.242905
vt 0.335498 0.241097
vt 0.331401 0.251002
vt 0.344608 0.258811
vt 0.324002 0.261799
vt 0.347692 0.271391
vt 0.371696 0.269897
vt 0.495089 0.260209
vt 0.495089 0.092689
vt 0.503789 0.090809
vt 0.497908 0.081000
vt 0.501692 0.079410
vt 0.504801 0.077506
vt 0.515188 0.083410
vt 0.645690 0.111391
vt 0.642099 0.127610
vt 0.632989 0.188704
vt 0.661500 0.129707
vt 0.665211 0.119103
vt 0.670802 0.108499
vt 0.657692 0.095099
vt 0.515911 0.068203
vt 0.505500 0.070396
vt 0.506994 0.061094
vt 0.521599 0.053309
vt 0.509501 0.053093
vt 0.510898 0.050104
vt 0.513501 0.046995
vt 0.524708 0.039211
vt 0.560593 0.035307
vt 0.532396 0.032704
vt 0.674490 0.083290
vt 0.684202 0.094593
vt 0.677599 0.100305
vt 0.705796 0.083796
vt 0.705796 0.095099
vt 0.701193 0.050104
vt 0.581704 0.020991
vt 0.536589 0.026004
vt 0.538396 0.016798
vt 0.539095 0.006001
vt 0.588308 0.016605
vt 0.647112 0.030005
vt 0.718906 0.047598
vt 0.715002 0.051189
vt 0.745103 0.055695
vt 0.749995 0.062612
vt 0.730089 0.086399
vt 0.722594 0.096497
vt 0.743392 0.099606
vt 0.753490 0.090207
vt 0.763612 0.103992
vt 0.772408 0.073192
vt 0.766094 0.063793
vt 0.784892 0.074011
vt 0.795207 0.087893
vt 0.776505 0.096400
vt 0.780795 0.109005
vt 0.808510 0.100208
vt 0.795689 0.105004
vt 0.808197 0.118500
vt 0.820994 0.113993
vt 0.815307 0.116211
vt 0.820392 0.123706
vt 0.824296 0.120790
vt 0.838708 0.131803
vt 0.832490 0.119392
vt 0.825501 0.109704
vt 0.814198 0.097196
vt 0.799111 0.083603
vt 0.360200 0.280790
vt 0.383095 0.288912
vt 0.366900 0.290406
vt 0.369599 0.303203
vt 0.620409 0.592597
vt 0.620289 0.607298
vt 0.630603 0.605997
vt 0.614794 0.577101
vt 0.613396 0.556809
vt 0.602503 0.424499
vt 0.617011 0.424306
vt 0.620506 0.303203
vt 0.607010 0.288912
vt 0.618409 0.269897
vt 0.630001 0.242905
vt 0.652101 0.221408
vt 0.653908 0.189595
vt 0.654704 0.241097
vt 0.658704 0.251002
vt 0.645497 0.258811
vt 0.666103 0.261799
vt 0.642388 0.271391
vt 0.630001 0.280790
vt 0.623205 0.290406
vt 0.644509 0.618794
vt 0.635110 0.622795
vt 0.648992 0.624699
vt 0.650390 0.630290
vt 0.636098 0.634291
vt 0.649305 0.636604
vt 0.646510 0.642605
vt 0.633206 0.638990
vt 0.625494 0.638002
vt 0.618698 0.632604
vt 0.615493 0.638195
vt 0.614601 0.644388
vt 0.615493 0.652607
vt 0.618602 0.659692
vt 0.624795 0.666392
vt 0.619903 0.674899
vt 0.643497 0.680611
vt 0.620096 0.692709
vt 0.636604 0.686202
vt 0.648992 0.686106
vt 0.640605 0.693312
vt 0.650992 0.690998
vt 0.650293 0.696396
vt 0.646799 0.703506
vt 0.628097 0.699096
vt 0.621903 0.698710
vt 0.616288 0.699409
vt 0.615589 0.710712
vt 0.616698 0.719508
vt 0.619493 0.724401
vt 0.623807 0.728498
vt 0.633399 0.743801
vt 0.644003 0.741295
vt 0.648896 0.746910
vt 0.640605 0.752694
vt 0.650293 0.753297
vt 0.629109 0.756912
vt 0.640099 0.758189
vt 0.648799 0.758406
vt 0.644702 0.764503
vt 0.640605 0.768504
vt 0.631399 0.765395
vt 0.624289 0.764094
vt 0.616409 0.763804
vt 0.616192 0.781711
vt 0.618288 0.801907
vt 0.622795 0.825910
vt 0.630700 0.853601
vt 0.604093 0.888402
vt 0.575005 0.923805
vt 0.546591 0.954991
vt 0.526804 0.974006
vt 0.514200 0.984200
s 1
usemtl models_monsters_darklord_mech_darklord_mech_sword
f 4/1/1 5/2/2 2/3/3
f 5/2/2 6/4/4 2/3/3
f 6/4/4 5/2/2 484/5/5
f 486/6/6 6/4/4 484/5/5
f 6/4/4 486/6/6 485/7/7
f 235/8/8 6/4/4 485/7/7
f 235/8/8 485/7/7 487/9/9
f 235/8/8 487/9/9 488/10/10
f 238/11/11 235/8/8 488/10/10
f 237/12/12 236/13/8 238/11/11
f 236/13/8 235/8/8 238/11/11
f 237/12/12 492/14/13 236/13/8
f 235/8/8 236/13/8 223/15/14
f 236/13/8 221/16/15 223/15/14
f 220/17/16 222/18/16 221/16/15
f 222/18/16 223/15/14 221/16/15
f 223/15/14 222/18/16 232/19/17
f 242/20/18 223/15/14 232/19/17
f 223/15/14 242/20/18 241/21/19
f 235/8/8 223/15/14 241/21/19
f 242/20/18 247/22/20 241/21/19
f 202/23/21 247/22/20 208/24/22
f 247/22/20 202/23/21 241/21/19
f 208/24/22 203/25/23 202/23/21
f 241/21/19 202/23/21 184/26/24
f 202/23/21 203/25/23 184/26/24
f 184/26/24 235/8/8 241/21/19
f 6/4/4 235/8/8 185/27/25
f 185/27/25 235/8/8 184/26/24
f 184/26/24 186/28/26 185/27/25
f 184/26/24 203/25/23 193/29/27
f 186/28/26 184/26/24 193/29/27
f 199/30/28 185/27/25 186/28/26
f 185/27/25 199/30/28 196/31/29
f 166/32/30 185/27/25 196/31/29
f 166/32/30 6/4/4 185/27/25
f 196/31/29 168/33/31 166/32/30
f 6/4/4 166/32/30 167/34/32
f 166/32/30 168/33/31 167/34/32
f 177/35/33 167/34/32 168/33/31
f 176/36/34 175/37/35 177/35/33
f 177/35/33 175/37/35 167/34/32
f 176/36/34 123/38/36 175/37/35
f 175/37/35 12/39/37 167/34/32
f 1/40/38 6/4/4 167/34/32
f 12/39/37 1/40/38 167/34/32
f 6/4/4 1/40/38 2/3/3
f 1/40/38 3/41/39 2/3/3
f 3/41/39 1/40/38 13/42/40
f 13/42/40 1/40/38 12/39/37
f 11/43/41 13/42/40 12/39/37
f 12/39/37 22/44/42 11/43/41
f 175/37/35 22/44/42 12/39/37
f 22/44/42 23/45/43 11/43/41
f 22/44/42 28/46/44 23/45/43
f 31/47/45 28/46/44 22/44/42
f 22/44/42 175/37/35 31/47/45
f 121/48/46 175/37/35 123/38/36
f 175/37/35 121/48/46 31/47/45
f 123/38/36 122/49/47 121/48/46
f 123/38/36 124/50/48 122/49/47
f 133/51/49 134/52/50 124/50/48
f 134/52/50 122/49/47 124/50/48
f 133/51/49 140/53/51 134/52/50
f 139/54/52 134/52/50 140/53/51
f 139/54/52 140/53/51 146/55/53
f 145/56/54 139/54/52 146/55/53
f 145/56/54 146/55/53 152/57/55
f 151/58/56 145/56/54 152/57/55
f 151/58/56 152/57/55 158/59/57
f 157/60/58 151/58/56 158/59/57
f 158/59/57 163/61/59 157/60/58
f 151/58/56 157/60/58 109/62/60
f 163/61/59 112/63/61 157/60/58
f 112/63/61 109/62/60 157/60/58
f 163/61/59 118/64/62 112/63/61
f 112/63/61 113/65/63 109/62/60
f 112/63/61 118/64/62 113/65/63
f 113/65/63 99/66/64 109/62/60
f 99/66/64 97/67/65 109/62/60
f 97/67/65 151/58/56 109/62/60
f 145/56/54 151/58/56 97/67/65
f 82/68/66 145/56/54 97/67/65
f 139/54/52 145/56/54 82/68/66
f 83/69/67 139/54/52 82/68/66
f 139/54/52 83/69/67 134/52/50
f 83/69/67 91/70/68 134/52/50
f 134/52/50 91/70/68 122/49/47
f 121/48/46 122/49/47 69/71/69
f 91/70/68 76/72/70 122/49/47
f 122/49/47 76/72/70 69/71/69
f 91/70/68 79/73/71 76/72/70
f 76/72/70 68/74/72 69/71/69
f 76/72/70 79/73/71 68/74/72
f 68/74/72 67/75/73 69/71/69
f 79/73/71 91/70/68 92/76/74
f 83/69/67 92/76/74 91/70/68
f 82/68/66 84/77/75 83/69/67
f 92/76/74 83/69/67 84/77/75
f 82/68/66 106/78/76 84/77/75
f 106/78/76 82/68/66 98/79/77
f 82/68/66 97/67/65 98/79/77
f 97/67/65 99/66/64 98/79/77
f 69/71/69 67/75/73 55/80/78
f 55/80/78 67/75/73 64/81/79
f 59/82/80 55/80/78 64/81/79
f 58/83/43 55/80/78 59/82/80
f 44/84/81 55/80/78 58/83/43
f 55/80/78 44/84/81 45/85/82
f 55/80/78 45/85/82 69/71/69
f 45/85/82 121/48/46 69/71/69
f 121/48/46 45/85/82 31/47/45
f 45/85/82 52/86/83 31/47/45
f 44/84/81 43/87/84 45/85/82
f 45/85/82 43/87/84 52/86/83
f 31/47/45 52/86/83 38/88/85
f 37/89/86 31/47/45 38/88/85
f 31/47/45 37/89/86 34/90/44
f 28/46/44 31/47/45 34/90/44
f 14/91/2 21/92/87 16/93/88
f 14/91/2 16/93/88 15/94/89
f 16/93/88 17/95/90 15/94/89
f 14/91/2 15/94/89 170/96/5
f 17/95/90 25/97/91 15/94/89
f 15/94/89 180/98/92 170/96/5
f 25/97/91 180/98/92 15/94/89
f 170/96/5 169/99/93 171/100/94
f 180/98/92 178/101/95 170/96/5
f 170/96/5 178/101/95 169/99/93
f 180/98/92 179/102/96 178/101/95
f 179/102/96 180/98/92 127/103/97
f 180/98/92 128/104/98 127/103/97
f 180/98/92 25/97/91 32/105/91
f 128/104/98 180/98/92 32/105/91
f 25/97/91 29/106/99 32/105/91
f 17/95/90 24/107/100 25/97/91
f 29/106/99 25/97/91 24/107/100
f 35/108/99 32/105/91 29/106/99
f 40/109/101 32/105/91 35/108/99
f 32/105/91 40/109/101 39/110/102
f 53/111/103 32/105/91 39/110/102
f 53/111/103 46/112/104 32/105/91
f 46/112/104 128/104/98 32/105/91
f 53/111/103 48/113/105 46/112/104
f 46/112/104 48/113/105 47/114/64
f 47/114/64 56/115/106 46/112/104
f 56/115/106 47/114/64 61/116/107
f 56/115/106 61/116/107 60/117/108
f 56/115/106 60/117/108 65/118/109
f 72/119/110 56/115/106 65/118/109
f 72/119/110 70/120/111 56/115/106
f 46/112/104 56/115/106 70/120/111
f 128/104/98 46/112/104 70/120/111
f 126/121/112 128/104/98 70/120/111
f 127/103/97 128/104/98 126/121/112
f 125/122/113 127/103/97 126/121/112
f 126/121/112 135/123/114 125/122/113
f 135/123/114 136/124/115 125/122/113
f 136/124/115 135/123/114 141/125/116
f 135/123/114 142/126/117 141/125/116
f 141/125/116 142/126/117 147/127/118
f 142/126/117 148/128/119 147/127/118
f 147/127/118 148/128/119 153/129/120
f 148/128/119 154/130/121 153/129/120
f 153/129/120 154/130/121 159/131/122
f 154/130/121 160/132/123 159/131/122
f 164/133/124 159/131/122 160/132/123
f 115/134/125 164/133/124 160/132/123
f 115/134/125 119/135/126 164/133/124
f 119/135/126 115/134/125 114/136/127
f 114/136/127 115/134/125 110/137/128
f 110/137/128 115/134/125 160/132/123
f 160/132/123 154/130/121 110/137/128
f 154/130/121 102/138/129 110/137/128
f 154/130/121 148/128/119 102/138/129
f 148/128/119 87/139/130 102/138/129
f 148/128/119 142/126/117 87/139/130
f 142/126/117 86/140/131 87/139/130
f 86/140/131 142/126/117 135/123/114
f 94/141/132 86/140/131 135/123/114
f 94/141/132 135/123/114 126/121/112
f 77/142/133 94/141/132 126/121/112
f 77/142/133 126/121/112 70/120/111
f 71/143/134 77/142/133 70/120/111
f 70/120/111 72/119/110 71/143/134
f 71/143/134 80/144/135 77/142/133
f 77/142/133 80/144/135 94/141/132
f 93/145/136 94/141/132 80/144/135
f 93/145/136 86/140/131 94/141/132
f 86/140/131 93/145/136 85/146/137
f 85/146/137 87/139/130 86/140/131
f 87/139/130 85/146/137 107/147/138
f 87/139/130 107/147/138 101/148/139
f 102/138/129 87/139/130 101/148/139
f 100/149/140 102/138/129 101/148/139
f 102/138/129 100/149/140 110/137/128
f 100/149/140 114/136/127 110/137/128
f 171/100/94 169/99/93 197/150/141
f 188/151/7 171/100/94 197/150/141
f 200/152/142 188/151/7 197/150/141
f 187/153/143 188/151/7 200/152/142
f 187/153/143 189/154/9 188/151/7
f 189/154/9 187/153/143 194/155/144
f 204/156/145 189/154/9 194/155/144
f 204/156/145 205/157/146 189/154/9
f 205/157/146 244/158/10 189/154/9
f 204/156/145 209/159/147 205/157/146
f 205/157/146 248/160/148 244/158/10
f 248/160/148 205/157/146 209/159/147
f 248/160/148 243/161/149 244/158/10
f 243/161/149 224/162/150 244/158/10
f 224/162/150 243/161/149 233/163/151
f 226/164/152 224/162/150 233/163/151
f 224/162/150 226/164/152 225/165/12
f 226/164/152 227/166/153 225/165/12
f 321/167/154 343/168/155 342/169/156
f 343/168/155 321/167/154 352/170/157
f 321/167/154 319/171/158 352/170/157
f 319/171/158 321/167/154 320/172/159
f 320/172/159 327/173/160 319/171/158
f 327/173/160 320/172/159 328/174/161
f 327/173/160 328/174/161 334/175/162
f 336/176/163 334/175/162 328/174/161
f 334/175/162 336/176/163 335/177/164
f 368/178/41 335/177/164 336/176/163
f 363/179/165 368/178/41 336/176/163
f 363/179/165 361/180/43 368/178/41
f 361/180/43 363/179/165 362/181/166
f 361/180/43 362/181/166 371/182/167
f 371/182/167 362/181/166 376/183/168
f 375/184/169 371/182/167 376/183/168
f 376/183/168 384/185/170 375/184/169
f 384/185/170 385/186/171 375/184/169
f 384/185/170 380/187/172 385/186/171
f 297/188/173 380/187/172 384/185/170
f 380/187/172 297/188/173 305/189/174
f 297/188/173 302/190/160 305/189/174
f 297/188/173 298/191/175 302/190/160
f 297/188/173 290/192/176 298/191/175
f 290/192/176 297/188/173 289/193/177
f 297/188/173 384/185/170 289/193/177
f 384/185/170 376/183/168 310/194/178
f 289/193/177 384/185/170 310/194/178
f 376/183/168 283/195/179 310/194/178
f 310/194/178 283/195/179 314/196/137
f 282/197/180 283/195/179 276/198/181
f 283/195/179 282/197/180 314/196/137
f 276/198/181 277/199/182 282/197/180
f 276/198/181 272/200/43 277/199/182
f 269/201/183 272/200/43 276/198/181
f 272/200/43 269/201/183 266/202/184
f 266/202/184 260/203/185 263/204/186
f 260/203/185 266/202/184 269/201/183
f 260/203/185 255/205/187 263/204/186
f 255/205/187 260/203/185 254/206/188
f 253/207/48 255/205/187 254/206/188
f 254/206/188 422/208/189 253/207/48
f 254/206/188 423/209/190 422/208/189
f 423/209/190 254/206/188 415/210/191
f 254/206/188 414/211/192 415/210/191
f 254/206/188 260/203/185 414/211/192
f 260/203/185 269/201/183 429/212/193
f 414/211/192 260/203/185 429/212/193
f 269/201/183 407/213/194 429/212/193
f 428/214/195 416/215/138 429/212/193
f 428/214/195 429/212/193 407/213/194
f 416/215/138 414/211/192 429/212/193
f 414/211/192 416/215/138 415/210/191
f 309/216/196 310/194/178 314/196/137
f 309/216/196 291/217/197 310/194/178
f 291/217/197 289/193/177 310/194/178
f 289/193/177 291/217/197 290/192/176
f 408/218/198 428/214/195 407/213/194
f 407/213/194 399/219/199 408/218/198
f 401/220/200 399/219/199 407/213/194
f 399/219/199 401/220/200 400/221/201
f 401/220/200 434/222/202 400/221/201
f 434/222/202 435/223/203 400/221/201
f 435/223/203 434/222/202 448/224/204
f 441/225/205 435/223/203 448/224/204
f 434/222/202 470/226/206 448/224/204
f 434/222/202 476/227/207 470/226/206
f 476/227/207 477/228/208 470/226/206
f 477/228/208 476/227/207 214/229/13
f 477/228/208 469/230/209 470/226/206
f 214/229/13 215/231/210 477/228/208
f 214/229/13 216/232/153 215/231/210
f 216/232/153 214/229/13 483/233/12
f 482/234/152 216/232/153 483/233/12
f 469/230/209 471/235/84 470/226/206
f 471/235/84 460/236/211 470/226/206
f 460/236/211 448/224/204 470/226/206
f 443/237/212 448/224/204 460/236/211
f 443/237/212 441/225/205 448/224/204
f 441/225/205 443/237/212 442/238/36
f 451/239/213 442/238/36 443/237/212
f 443/237/212 465/240/214 451/239/213
f 443/237/212 461/241/215 465/240/214
f 460/236/211 461/241/215 443/237/212
f 460/236/211 462/242/216 461/241/215
f 462/242/216 460/236/211 471/235/84
f 347/243/217 349/244/156 348/245/218
f 347/243/217 348/245/218 355/246/219
f 348/245/218 354/247/220 355/246/219
f 354/247/220 346/248/221 355/246/219
f 341/249/222 316/250/223 346/248/221
f 346/248/221 316/250/223 355/246/219
f 341/249/222 340/251/224 316/250/223
f 316/250/223 340/251/224 351/252/225
f 318/253/226 316/250/223 351/252/225
f 316/250/223 318/253/226 317/254/227
f 317/254/227 388/255/8 316/250/223
f 316/250/223 388/255/8 355/246/219
f 388/255/8 347/243/217 355/246/219
f 388/255/8 501/256/159 347/243/217
f 388/255/8 502/257/161 501/256/159
f 502/257/161 388/255/8 389/258/163
f 388/255/8 390/259/165 389/258/163
f 390/259/165 388/255/8 393/260/166
f 393/260/166 388/255/8 392/261/8
f 393/260/166 392/261/8 395/262/168
f 392/261/8 500/263/179 395/262/168
f 392/261/8 498/264/181 500/263/179
f 498/264/181 392/261/8 499/265/183
f 490/266/8 499/265/183 392/261/8
f 499/265/183 490/266/8 497/267/228
f 490/266/8 495/268/200 497/267/228
f 495/268/200 490/266/8 496/269/202
f 490/266/8 494/270/229 496/269/202
f 494/270/229 490/266/8 491/271/13
f 490/266/8 489/272/8 491/271/13
f 489/272/8 490/266/8 213/273/230
f 480/274/15 489/272/8 213/273/230
f 213/273/230 211/275/16 480/274/15
f 211/275/16 481/276/16 480/274/15
f 213/273/230 212/277/231 211/275/16
f 474/278/232 212/277/231 213/273/230
f 475/279/233 474/278/232 213/273/230
f 490/266/8 475/279/233 213/273/230
f 474/278/232 467/280/234 468/281/235
f 474/278/232 475/279/233 467/280/234
f 467/280/234 454/282/236 468/281/235
f 475/279/233 433/283/237 467/280/234
f 475/279/233 490/266/8 433/283/237
f 433/283/237 447/284/238 467/280/234
f 453/285/239 454/282/236 467/280/234
f 447/284/238 453/285/239 467/280/234
f 453/285/239 455/286/240 454/282/236
f 455/286/240 453/285/239 459/287/241
f 459/287/241 453/285/239 438/288/242
f 447/284/238 438/288/242 453/285/239
f 459/287/241 438/288/242 464/289/243
f 464/289/243 438/288/242 450/290/244
f 439/291/97 450/290/244 438/288/242
f 438/288/242 440/292/245 439/291/97
f 440/292/245 438/288/242 447/284/238
f 432/293/246 440/292/245 447/284/238
f 433/283/237 432/293/246 447/284/238
f 432/293/246 433/283/237 397/294/247
f 433/283/237 396/295/248 397/294/247
f 490/266/8 396/295/248 433/283/237
f 396/295/248 398/296/249 397/294/247
f 398/296/249 396/295/248 406/297/250
f 396/295/248 490/266/8 406/297/250
f 398/296/249 406/297/250 405/298/251
f 427/299/252 405/298/251 406/297/250
f 426/300/253 427/299/252 406/297/250
f 411/301/76 427/299/252 426/300/253
f 406/297/250 268/302/254 426/300/253
f 490/266/8 268/302/254 406/297/250
f 268/302/254 490/266/8 392/261/8
f 392/261/8 275/303/255 268/302/254
f 268/302/254 271/304/256 265/305/257
f 271/304/256 268/302/254 275/303/255
f 265/305/257 259/306/258 268/302/254
f 268/302/254 259/306/258 426/300/253
f 413/307/259 411/301/76 426/300/253
f 259/306/258 413/307/259 426/300/253
f 411/301/76 413/307/259 412/308/260
f 413/307/259 251/309/261 412/308/260
f 259/306/258 251/309/261 413/307/259
f 251/309/261 420/310/262 412/308/260
f 420/310/262 251/309/261 421/311/263
f 421/311/263 251/309/261 252/312/113
f 250/313/264 252/312/113 251/309/261
f 259/306/258 250/313/264 251/309/261
f 250/313/264 259/306/258 262/314/265
f 259/306/258 265/305/257 262/314/265
f 271/304/256 275/303/255 274/315/266
f 275/303/255 281/316/267 274/315/266
f 280/317/268 281/316/267 275/303/255
f 275/303/255 392/261/8 280/317/268
f 281/316/267 280/317/268 313/318/75
f 280/317/268 307/319/269 313/318/75
f 307/319/269 308/320/270 313/318/75
f 286/321/271 308/320/270 307/319/269
f 288/322/272 286/321/271 307/319/269
f 286/321/271 288/322/272 287/323/273
f 307/319/269 383/324/274 288/322/272
f 288/322/272 296/325/275 287/323/273
f 383/324/274 296/325/275 288/322/272
f 287/323/273 296/325/275 295/326/276
f 295/326/276 296/325/275 301/327/277
f 301/327/277 296/325/275 304/328/278
f 296/325/275 379/329/279 304/328/278
f 379/329/279 296/325/275 383/324/274
f 379/329/279 383/324/274 382/330/280
f 382/330/280 383/324/274 374/331/281
f 383/324/274 373/332/282 374/331/281
f 373/332/282 383/324/274 307/319/269
f 280/317/268 373/332/282 307/319/269
f 280/317/268 392/261/8 373/332/282
f 388/255/8 359/333/283 392/261/8
f 392/261/8 359/333/283 373/332/282
f 359/333/283 370/334/284 373/332/282
f 370/334/284 374/331/281 373/332/282
f 359/333/283 360/335/107 370/334/284
f 358/336/285 360/335/107 359/333/283
f 388/255/8 358/336/285 359/333/283
f 360/335/107 358/336/285 367/337/90
f 367/337/90 358/336/285 331/338/286
f 358/336/285 388/255/8 331/338/286
f 331/338/286 332/339/287 367/337/90
f 331/338/286 333/340/288 332/339/287
f 333/340/288 331/338/286 325/341/289
f 388/255/8 325/341/289 331/338/286
f 325/341/289 388/255/8 317/254/227
f 317/254/227 326/342/277 325/341/289
f 325/341/289 326/342/277 333/340/288
f 317/254/227 318/253/226 326/342/277
f 7/343/290 9/344/291 8/345/292
f 9/344/291 7/343/290 19/346/293
f 9/344/291 19/346/293 18/347/294
f 19/346/293 20/348/41 18/347/294
f 26/349/43 27/350/295 20/348/41
f 27/350/295 18/347/294 20/348/41
f 26/349/43 30/351/44 27/350/295
f 27/350/295 183/352/296 18/347/294
f 30/351/44 33/353/297 27/350/295
f 183/352/296 27/350/295 33/353/297
f 30/351/44 36/354/44 33/353/297
f 42/355/298 33/353/297 36/354/44
f 33/353/297 42/355/298 41/356/299
f 54/357/83 33/353/297 41/356/299
f 54/357/83 49/358/300 33/353/297
f 132/359/301 183/352/296 33/353/297
f 49/358/300 132/359/301 33/353/297
f 183/352/296 132/359/301 131/360/302
f 131/360/302 132/359/301 130/361/303
f 132/359/301 49/358/300 73/362/304
f 130/361/303 132/359/301 73/362/304
f 49/358/300 57/363/305 73/362/304
f 49/358/300 51/364/84 50/365/81
f 50/365/81 57/363/305 49/358/300
f 51/364/84 49/358/300 54/357/83
f 57/363/305 50/365/81 63/366/43
f 57/363/305 63/366/43 62/367/80
f 57/363/305 62/367/80 66/368/79
f 75/369/306 57/363/305 66/368/79
f 75/369/306 73/362/304 57/363/305
f 73/362/304 75/369/306 74/370/72
f 74/370/72 78/371/307 73/362/304
f 78/371/307 130/361/303 73/362/304
f 74/370/72 81/372/308 78/371/307
f 78/371/307 96/373/309 130/361/303
f 78/371/307 81/372/308 96/373/309
f 95/374/310 96/373/309 81/372/308
f 95/374/310 89/375/311 96/373/309
f 89/375/311 95/374/310 88/376/75
f 89/375/311 137/377/312 96/373/309
f 96/373/309 137/377/312 130/361/303
f 129/378/48 131/360/302 130/361/303
f 130/361/303 137/377/312 129/378/48
f 137/377/312 138/379/49 129/378/48
f 138/379/49 137/377/312 143/380/313
f 137/377/312 144/381/314 143/380/313
f 89/375/311 144/381/314 137/377/312
f 88/376/75 90/382/315 89/375/311
f 144/381/314 89/375/311 90/382/315
f 88/376/75 108/383/76 90/382/315
f 90/382/315 108/383/76 104/384/316
f 105/385/317 90/382/315 104/384/316
f 103/386/64 105/385/317 104/384/316
f 105/385/317 150/387/318 90/382/315
f 150/387/318 144/381/314 90/382/315
f 144/381/314 150/387/318 149/388/53
f 143/380/313 144/381/314 149/388/53
f 150/387/318 155/389/55 149/388/53
f 150/387/318 156/390/319 155/389/55
f 156/390/319 150/387/318 105/385/317
f 156/390/319 105/385/317 111/391/320
f 105/385/317 103/386/64 111/391/320
f 103/386/64 116/392/63 111/391/320
f 116/392/63 117/393/321 111/391/320
f 120/394/62 117/393/321 116/392/63
f 117/393/321 120/394/62 165/395/322
f 117/393/321 165/395/322 162/396/323
f 111/391/320 117/393/321 162/396/323
f 162/396/323 156/390/319 111/391/320
f 156/390/319 162/396/323 161/397/57
f 155/389/55 156/390/319 161/397/57
f 162/396/323 165/395/322 161/397/57
f 182/398/324 183/352/296 131/360/302
f 181/399/325 183/352/296 182/398/324
f 183/352/296 181/399/325 173/400/326
f 18/347/294 183/352/296 173/400/326
f 181/399/325 172/401/327 173/400/326
f 172/401/327 174/402/328 173/400/326
f 174/402/328 172/401/327 198/403/329
f 191/404/330 174/402/328 198/403/329
f 201/405/28 191/404/330 198/403/329
f 190/406/26 191/404/330 201/405/28
f 190/406/26 192/407/331 191/404/330
f 192/407/331 190/406/26 195/408/27
f 206/409/23 192/407/331 195/408/27
f 206/409/23 207/410/332 192/407/331
f 207/410/332 206/409/23 210/411/22
f 249/412/333 207/410/332 210/411/22
f 207/410/332 249/412/333 246/413/334
f 207/410/332 246/413/334 192/407/331
f 240/414/335 191/404/330 192/407/331
f 240/414/335 192/407/331 246/413/334
f 240/414/335 10/415/335 191/404/330
f 10/415/335 174/402/328 191/404/330
f 174/402/328 10/415/335 173/400/326
f 9/344/291 18/347/294 173/400/326
f 10/415/335 9/344/291 173/400/326
f 9/344/291 10/415/335 8/345/292
f 10/415/335 503/416/336 8/345/292
f 503/416/336 504/417/87 8/345/292
f 504/417/87 503/416/336 507/418/337
f 505/419/90 507/418/337 506/420/338
f 507/418/337 503/416/336 506/420/338
f 506/420/338 503/416/336 557/421/339
f 503/416/336 10/415/335 557/421/339
f 556/422/340 10/415/335 563/423/341
f 10/415/335 556/422/340 557/421/339
f 10/415/335 240/414/335 563/423/341
f 556/422/340 563/423/341 566/424/141
f 558/425/93 556/422/340 566/424/141
f 556/422/340 558/425/93 557/421/339
f 561/426/95 557/421/339 558/425/93
f 561/426/95 559/427/342 557/421/339
f 559/427/342 506/420/338 557/421/339
f 559/427/342 508/428/343 506/420/338
f 506/420/338 508/428/343 505/419/90
f 508/428/343 509/429/256 505/419/90
f 508/428/343 510/430/99 509/429/256
f 511/431/343 510/430/99 508/428/343
f 508/428/343 559/427/342 511/431/343
f 510/430/99 511/431/343 512/432/99
f 511/431/343 513/433/101 512/432/99
f 513/433/101 511/431/343 514/434/102
f 511/431/343 518/435/344 514/434/102
f 517/436/345 518/435/344 511/431/343
f 517/436/345 515/437/236 518/435/344
f 511/431/343 541/438/346 517/436/345
f 559/427/342 541/438/346 511/431/343
f 541/438/346 559/427/342 543/439/97
f 559/427/342 561/426/95 560/440/347
f 559/427/342 560/440/347 543/439/97
f 541/438/346 543/439/97 542/441/348
f 543/439/97 544/442/113 542/441/348
f 541/438/346 542/441/348 525/443/349
f 517/436/345 541/438/346 525/443/349
f 519/444/350 517/436/345 525/443/349
f 519/444/350 516/445/351 517/436/345
f 515/437/236 517/436/345 516/445/351
f 519/444/350 520/446/100 516/445/351
f 520/446/100 519/444/350 521/447/352
f 521/447/352 519/444/350 522/448/353
f 525/443/349 523/449/354 519/444/350
f 519/444/350 523/449/354 522/448/353
f 525/443/349 524/450/134 523/449/354
f 526/451/355 524/450/134 525/443/349
f 542/441/348 526/451/355 525/443/349
f 526/451/355 527/452/135 524/450/134
f 527/452/135 526/451/355 531/453/356
f 531/453/356 526/451/355 542/441/348
f 546/454/357 531/453/356 542/441/348
f 546/454/357 542/441/348 544/442/113
f 545/455/358 546/454/357 544/442/113
f 546/454/357 545/455/358 548/456/116
f 547/457/359 546/454/357 548/456/116
f 547/457/359 548/456/116 550/458/118
f 547/457/359 529/459/360 546/454/357
f 529/459/360 531/453/356 546/454/357
f 529/459/360 532/460/361 531/453/356
f 531/453/356 532/460/361 527/452/135
f 529/459/360 530/461/137 532/460/361
f 528/462/362 530/461/137 529/459/360
f 529/459/360 547/457/359 528/462/362
f 549/463/363 547/457/359 550/458/118
f 547/457/359 549/463/363 528/462/362
f 550/458/118 552/464/364 549/463/363
f 528/462/362 549/463/363 533/465/365
f 552/464/364 551/466/366 549/463/363
f 549/463/363 551/466/366 533/465/365
f 552/464/364 554/467/122 551/466/366
f 533/465/365 551/466/366 537/468/367
f 554/467/122 553/469/368 551/466/366
f 551/466/366 553/469/368 537/468/367
f 554/467/122 555/470/369 553/469/368
f 553/469/368 538/471/370 537/468/367
f 555/470/369 538/471/370 553/469/368
f 540/472/126 538/471/370 555/470/369
f 538/471/370 540/472/126 539/473/371
f 538/471/370 539/473/371 537/468/367
f 539/473/371 535/474/81 537/468/367
f 535/474/81 533/465/365 537/468/367
f 533/465/365 535/474/81 534/475/139
f 528/462/362 533/465/365 534/475/139
f 536/476/138 528/462/362 534/475/139
f 530/461/137 528/462/362 536/476/138
f 246/413/334 249/412/333 245/477/372
f 245/477/372 228/478/373 246/413/334
f 228/478/373 245/477/372 234/479/374
f 228/478/373 240/414/335 246/413/334
f 234/479/374 230/480/16 228/478/373
f 228/478/373 239/272/375 240/414/335
f 230/480/16 229/274/376 228/478/373
f 229/274/376 239/272/375 228/478/373
f 230/480/16 231/276/16 229/274/376
f 231/276/16 219/275/16 229/274/376
f 219/275/16 217/273/377 229/274/376
f 239/272/375 229/274/376 217/273/377
f 219/275/16 218/277/231 217/273/377
f 218/277/231 479/278/232 217/273/377
f 479/278/232 478/279/378 217/273/377
f 478/279/378 493/266/375 217/273/377
f 493/266/375 239/272/375 217/273/377
f 478/279/378 436/283/379 493/266/375
f 478/279/378 479/278/232 473/280/380
f 436/283/379 478/279/378 473/280/380
f 479/278/232 472/281/381 473/280/380
f 472/281/381 457/282/105 473/280/380
f 456/286/382 458/285/383 457/282/105
f 457/282/105 458/285/383 473/280/380
f 456/286/382 463/287/384 458/285/383
f 458/285/383 449/284/385 473/280/380
f 449/284/385 436/283/379 473/280/380
f 458/285/383 446/288/386 449/284/385
f 458/285/383 463/287/384 446/288/386
f 446/288/386 463/287/384 466/289/243
f 446/288/386 466/289/243 452/290/244
f 452/290/244 445/291/97 446/288/386
f 444/292/387 446/288/386 445/291/97
f 446/288/386 444/292/387 449/284/385
f 444/292/387 437/293/388 449/284/385
f 437/293/388 436/283/379 449/284/385
f 436/283/379 437/293/388 403/294/389
f 404/295/390 436/283/379 403/294/389
f 404/295/390 493/266/375 436/283/379
f 403/294/389 402/296/249 404/295/390
f 493/266/375 404/295/390 409/297/391
f 404/295/390 402/296/249 409/297/391
f 409/297/391 402/296/249 410/298/392
f 410/298/392 430/299/393 409/297/391
f 430/299/393 419/301/76 431/300/394
f 430/299/393 431/300/394 409/297/391
f 409/297/391 270/302/395 493/266/375
f 270/302/395 409/297/391 431/300/394
f 261/306/396 270/302/395 431/300/394
f 417/307/397 261/306/396 431/300/394
f 419/301/76 417/307/397 431/300/394
f 417/307/397 419/301/76 418/308/260
f 257/309/398 417/307/397 418/308/260
f 257/309/398 261/306/396 417/307/397
f 418/308/260 425/310/262 257/309/398
f 257/309/398 425/310/262 424/311/263
f 257/309/398 424/311/263 256/312/399
f 256/312/399 258/313/400 257/309/398
f 258/313/400 261/306/396 257/309/398
f 261/306/396 258/313/400 264/314/401
f 267/305/257 261/306/396 264/314/401
f 261/306/396 267/305/257 270/302/395
f 273/304/256 270/302/395 267/305/257
f 279/315/402 278/303/403 273/304/256
f 270/302/395 273/304/256 278/303/403
f 279/315/402 284/316/267 278/303/403
f 284/316/267 285/317/404 278/303/403
f 285/317/404 284/316/267 315/318/75
f 285/317/404 394/261/405 278/303/403
f 278/303/403 394/261/405 270/302/395
f 493/266/375 270/302/395 394/261/405
f 588/265/406 493/266/375 394/261/405
f 493/266/375 588/265/406 630/267/407
f 626/268/408 493/266/375 630/267/407
f 493/266/375 626/268/408 639/269/409
f 653/270/410 493/266/375 639/269/409
f 493/266/375 653/270/410 573/271/411
f 239/272/375 493/266/375 573/271/411
f 653/270/410 652/481/412 573/271/411
f 652/481/412 653/270/410 650/482/413
f 653/270/410 639/269/409 650/482/413
f 650/482/413 651/483/209 652/481/412
f 652/481/412 572/484/210 573/271/411
f 571/485/153 573/271/411 572/484/210
f 573/271/411 571/485/153 575/486/414
f 575/486/414 239/272/375 573/271/411
f 571/485/153 574/487/153 575/486/414
f 574/487/153 576/488/153 575/486/414
f 576/488/153 577/489/415 575/486/414
f 239/272/375 575/486/414 577/489/415
f 240/414/335 239/272/375 577/489/415
f 240/414/335 577/489/415 579/490/416
f 562/491/417 240/414/335 579/490/416
f 563/423/341 240/414/335 562/491/417
f 562/491/417 564/492/143 563/423/341
f 563/423/341 564/492/143 567/493/418
f 563/423/341 567/493/418 566/424/141
f 564/492/143 562/491/417 565/494/419
f 562/491/417 569/495/420 565/494/419
f 568/496/421 569/495/420 562/491/417
f 579/490/416 568/496/421 562/491/417
f 569/495/420 568/496/421 570/497/147
f 568/496/421 581/498/148 570/497/147
f 581/498/148 568/496/421 579/490/416
f 581/498/148 579/490/416 580/499/149
f 577/489/415 580/499/149 579/490/416
f 577/489/415 576/488/153 578/500/422
f 580/499/149 577/489/415 578/500/422
f 646/501/84 651/483/209 650/482/413
f 645/502/423 646/501/84 650/482/413
f 645/502/423 647/503/216 646/501/84
f 647/503/216 645/502/423 648/504/424
f 648/504/424 640/505/425 649/506/426
f 648/504/424 645/502/423 640/505/425
f 649/506/426 640/505/425 644/507/213
f 641/508/36 644/507/213 640/505/425
f 640/505/425 642/509/205 641/508/36
f 642/509/205 640/505/425 643/510/427
f 643/510/427 640/505/425 645/502/423
f 643/510/427 645/502/423 650/482/413
f 639/269/409 643/510/427 650/482/413
f 639/269/409 638/511/203 643/510/427
f 638/511/203 642/509/205 643/510/427
f 639/269/409 627/512/428 638/511/203
f 639/269/409 626/268/408 627/512/428
f 626/268/408 628/513/199 627/512/428
f 628/513/199 626/268/408 630/267/407
f 628/513/199 630/267/407 629/514/197
f 637/515/195 629/514/197 630/267/407
f 636/516/429 637/515/195 630/267/407
f 630/267/407 588/265/406 636/516/429
f 636/516/429 631/517/138 637/515/195
f 588/265/406 585/518/430 636/516/429
f 636/516/429 633/519/431 631/517/138
f 585/518/430 633/519/431 636/516/429
f 631/517/138 633/519/431 632/520/432
f 633/519/431 583/521/433 632/520/432
f 585/518/430 583/521/433 633/519/431
f 583/521/433 634/522/190 632/520/432
f 634/522/190 583/521/433 635/523/189
f 635/523/189 583/521/433 584/524/48
f 582/525/187 584/524/48 583/521/433
f 585/518/430 582/525/187 583/521/433
f 582/525/187 585/518/430 586/526/186
f 585/518/430 587/527/434 586/526/186
f 587/527/434 585/518/430 588/265/406
f 588/265/406 589/528/43 587/527/434
f 589/528/43 588/265/406 591/264/435
f 394/261/405 591/264/435 588/265/406
f 589/528/43 591/264/435 590/529/436
f 591/264/435 593/530/437 590/529/436
f 592/263/438 593/530/437 591/264/435
f 591/264/435 394/261/405 592/263/438
f 593/530/437 592/263/438 603/531/137
f 592/263/438 601/532/439 603/531/137
f 601/532/439 602/533/440 603/531/137
f 594/534/198 602/533/440 601/532/439
f 596/535/441 594/534/198 601/532/439
f 594/534/198 596/535/441 595/536/442
f 601/532/439 625/537/443 596/535/441
f 596/535/441 598/538/444 595/536/442
f 625/537/443 598/538/444 596/535/441
f 595/536/442 598/538/444 597/539/175
f 597/539/175 598/538/444 599/540/160
f 599/540/160 598/538/444 600/541/174
f 598/538/444 623/542/445 600/541/174
f 623/542/445 598/538/444 625/537/443
f 623/542/445 625/537/443 624/543/446
f 624/543/446 625/537/443 622/544/447
f 625/537/443 621/262/448 622/544/447
f 621/262/448 625/537/443 601/532/439
f 592/263/438 621/262/448 601/532/439
f 592/263/438 394/261/405 621/262/448
f 617/260/417 620/545/167 621/262/448
f 394/261/405 617/260/417 621/262/448
f 620/545/167 622/544/447 621/262/448
f 617/260/417 618/546/43 620/545/167
f 616/259/449 618/546/43 617/260/417
f 618/546/43 616/259/449 619/547/450
f 617/260/417 394/261/405 391/255/375
f 391/255/375 616/259/449 617/260/417
f 616/259/449 391/255/375 609/258/451
f 619/547/450 616/259/449 609/258/451
f 610/548/452 619/547/450 609/258/451
f 609/258/451 611/549/162 610/548/452
f 611/549/162 609/258/451 607/257/453
f 391/255/375 607/257/453 609/258/451
f 607/257/453 608/550/454 611/549/162
f 605/256/455 608/550/454 607/257/453
f 607/257/453 391/255/375 605/256/455
f 608/550/454 605/256/455 606/551/158
f 391/255/375 604/243/456 605/256/455
f 604/243/456 606/551/158 605/256/455
f 606/551/158 604/243/456 615/552/157
f 604/243/456 612/553/155 615/552/157
f 612/553/155 604/243/456 613/244/156
f 613/244/156 604/243/456 614/245/457
f 614/245/457 604/243/456 356/246/458
f 604/243/456 391/255/375 356/246/458
f 356/246/458 357/247/459 614/245/457
f 350/248/460 357/247/459 356/246/458
f 324/250/461 350/248/460 356/246/458
f 391/255/375 324/250/461 356/246/458
f 324/250/461 344/249/222 350/248/460
f 324/250/461 345/251/462 344/249/222
f 345/251/462 324/250/461 353/252/225
f 324/250/461 322/253/226 353/252/225
f 322/253/226 324/250/461 323/254/463
f 391/255/375 323/254/463 324/250/461
f 323/254/463 329/342/277 322/253/226
f 329/342/277 323/254/463 330/341/464
f 329/342/277 330/341/464 337/340/465
f 323/254/463 391/255/375 330/341/464
f 330/341/464 339/338/466 337/340/465
f 330/341/464 391/255/375 339/338/466
f 337/340/465 339/338/466 338/339/287
f 369/337/90 338/339/287 339/338/466
f 366/336/467 369/337/90 339/338/466
f 391/255/375 366/336/467 339/338/466
f 366/336/467 364/335/100 369/337/90
f 364/335/100 366/336/467 365/333/331
f 366/336/467 391/255/375 365/333/331
f 365/333/331 391/255/375 394/261/405
f 365/333/331 394/261/405 378/332/468
f 394/261/405 285/317/404 378/332/468
f 378/332/468 372/334/469 365/333/331
f 364/335/100 365/333/331 372/334/469
f 378/332/468 377/331/470 372/334/469
f 378/332/468 386/324/471 377/331/470
f 386/324/471 387/330/472 377/331/470
f 386/324/471 381/329/473 387/330/472
f 299/325/474 381/329/473 386/324/471
f 381/329/473 299/325/474 306/328/475
f 299/325/474 303/327/277 306/328/475
f 299/325/474 300/326/476 303/327/277
f 299/325/474 293/323/477 300/326/476
f 293/323/477 299/325/474 292/322/478
f 299/325/474 386/324/471 292/322/478
f 386/324/471 378/332/468 312/319/479
f 292/322/478 386/324/471 312/319/479
f 378/332/468 285/317/404 312/319/479
f 312/319/479 285/317/404 315/318/75
f 311/320/480 312/319/479 315/318/75
f 311/320/480 294/321/271 312/319/479
f 294/321/271 292/322/478 312/319/479
f 292/322/478 294/321/271 293/323/477
